<svg xmlns="http://www.w3.org/2000/svg" xmlns:xlink="http://www.w3.org/1999/xlink" width="336" zoomAndPan="magnify" viewBox="0 0 252 143.999998" height="192" preserveAspectRatio="xMidYMid meet" version="1.0"><defs><g/></defs><rect x="-25.2" width="302.4" fill="#ffffff" y="-14.4" height="172.799997" fill-opacity="1"/><rect x="-25.2" width="302.4" fill="#ffffff" y="-14.4" height="172.799997" fill-opacity="1"/><g fill="#1e0b1e" fill-opacity="1"><g transform="translate(75.176778, 80.999997)"><g><path d="M 3.484375 -24.90625 C 2.671875 -24.90625 2.097656 -25.046875 1.765625 -25.328125 C 1.429688 -25.609375 1.265625 -26.097656 1.265625 -26.796875 C 1.265625 -27.941406 1.554688 -28.90625 2.140625 -29.6875 C 2.734375 -30.476562 3.519531 -30.875 4.5 -30.875 C 5.132812 -30.875 5.453125 -30.507812 5.453125 -29.78125 L 5.453125 -29.359375 C 5.453125 -28.742188 5.722656 -28.4375 6.265625 -28.4375 C 6.484375 -28.4375 6.71875 -28.476562 6.96875 -28.5625 C 9.800781 -29.144531 12.648438 -29.617188 15.515625 -29.984375 C 18.390625 -30.347656 21.28125 -30.5625 24.1875 -30.625 C 25.25 -30.625 26.332031 -30.609375 27.4375 -30.578125 C 28.550781 -30.546875 29.640625 -30.503906 30.703125 -30.453125 C 30.921875 -30.453125 31.148438 -30.34375 31.390625 -30.125 C 31.628906 -29.914062 31.875 -29.726562 32.125 -29.5625 C 31.875 -29.425781 31.628906 -29.238281 31.390625 -29 C 31.148438 -28.757812 30.921875 -28.613281 30.703125 -28.5625 C 28.828125 -28.332031 26.953125 -28.113281 25.078125 -27.90625 C 23.203125 -27.695312 21.3125 -27.492188 19.40625 -27.296875 C 18.757812 -27.242188 18.300781 -27.078125 18.03125 -26.796875 C 17.769531 -26.515625 17.582031 -26.050781 17.46875 -25.40625 C 17.132812 -23.3125 16.765625 -21.226562 16.359375 -19.15625 C 15.953125 -17.082031 15.550781 -15.007812 15.15625 -12.9375 L 11.96875 3.234375 C 11.914062 3.566406 11.800781 3.957031 11.625 4.40625 C 11.457031 4.851562 11.257812 5.242188 11.03125 5.578125 C 10.8125 5.921875 10.566406 6.09375 10.296875 6.09375 C 9.816406 6.09375 9.421875 5.921875 9.109375 5.578125 C 8.804688 5.242188 8.65625 4.828125 8.65625 4.328125 C 8.851562 1.835938 9.1875 -0.585938 9.65625 -2.953125 C 10.132812 -5.328125 10.597656 -7.71875 11.046875 -10.125 L 13.8125 -24.1875 C 13.84375 -24.351562 13.863281 -24.515625 13.875 -24.671875 C 13.894531 -24.828125 13.90625 -24.972656 13.90625 -25.109375 C 13.90625 -26.097656 13.457031 -26.59375 12.5625 -26.59375 C 12.394531 -26.59375 12.21875 -26.578125 12.03125 -26.546875 C 11.851562 -26.515625 11.648438 -26.472656 11.421875 -26.421875 C 10.109375 -26.140625 8.785156 -25.878906 7.453125 -25.640625 C 6.117188 -25.398438 4.796875 -25.15625 3.484375 -24.90625 Z M 3.484375 -24.90625 "/></g></g><g transform="translate(101.006776, 80.999997)"><g><path d="M 0.84375 -5.84375 C 1.09375 -7.40625 1.34375 -8.960938 1.59375 -10.515625 C 1.84375 -12.078125 2.109375 -13.625 2.390625 -15.15625 C 2.453125 -15.519531 2.585938 -15.8125 2.796875 -16.03125 C 3.003906 -16.257812 3.289062 -16.375 3.65625 -16.375 C 4.019531 -16.375 4.265625 -16.296875 4.390625 -16.140625 C 4.515625 -15.992188 4.578125 -15.835938 4.578125 -15.671875 C 4.578125 -15.492188 4.554688 -15.320312 4.515625 -15.15625 C 4.472656 -14.988281 4.425781 -14.820312 4.375 -14.65625 C 4.195312 -13.363281 4.007812 -12.0625 3.8125 -10.75 C 3.625 -9.4375 3.429688 -8.117188 3.234375 -6.796875 C 3.234375 -6.523438 3.300781 -6.273438 3.4375 -6.046875 C 3.582031 -5.828125 3.679688 -5.585938 3.734375 -5.328125 C 3.960938 -5.472656 4.171875 -5.609375 4.359375 -5.734375 C 4.554688 -5.859375 4.710938 -6.019531 4.828125 -6.21875 C 5.691406 -7.695312 6.523438 -9.164062 7.328125 -10.625 C 8.128906 -12.082031 8.9375 -13.539062 9.75 -15 C 9.882812 -15.25 10.039062 -15.484375 10.21875 -15.703125 C 10.40625 -15.929688 10.640625 -16.046875 10.921875 -16.046875 C 11.421875 -16.046875 11.796875 -15.867188 12.046875 -15.515625 C 12.304688 -15.171875 12.4375 -14.800781 12.4375 -14.40625 C 12.4375 -14.207031 12.421875 -14.050781 12.390625 -13.9375 C 12.023438 -12.457031 11.660156 -10.972656 11.296875 -9.484375 C 10.929688 -8.003906 10.597656 -6.523438 10.296875 -5.046875 C 10.265625 -4.929688 10.238281 -4.8125 10.21875 -4.6875 C 10.207031 -4.5625 10.203125 -4.425781 10.203125 -4.28125 C 10.203125 -3.78125 10.285156 -3.304688 10.453125 -2.859375 C 10.617188 -2.410156 10.703125 -2.0625 10.703125 -1.8125 C 10.703125 -1.5 10.484375 -1.179688 10.046875 -0.859375 C 9.617188 -0.535156 9.222656 -0.375 8.859375 -0.375 C 8.523438 -0.375 8.238281 -0.5625 8 -0.9375 C 7.757812 -1.320312 7.5625 -1.769531 7.40625 -2.28125 C 7.257812 -2.800781 7.113281 -3.242188 6.96875 -3.609375 L 6.59375 -4.78125 C 6.425781 -4.695312 6.238281 -4.613281 6.03125 -4.53125 C 5.820312 -4.445312 5.644531 -4.347656 5.5 -4.234375 C 5.050781 -3.847656 4.644531 -3.414062 4.28125 -2.9375 C 3.914062 -2.457031 3.453125 -2.21875 2.890625 -2.21875 C 2.191406 -2.21875 1.726562 -2.578125 1.5 -3.296875 C 1.28125 -4.015625 1.101562 -4.863281 0.96875 -5.84375 Z M 0.84375 -5.84375 "/></g></g><g transform="translate(114.278776, 80.999997)"><g><path d="M 1.515625 -8.984375 C 1.429688 -8.898438 1.359375 -8.859375 1.296875 -8.859375 C 1.078125 -8.859375 0.910156 -8.976562 0.796875 -9.21875 C 0.679688 -9.457031 0.597656 -9.722656 0.546875 -10.015625 C 0.492188 -10.304688 0.46875 -10.539062 0.46875 -10.71875 C 0.46875 -10.90625 0.46875 -10.929688 0.46875 -10.796875 C 0.46875 -11.160156 0.515625 -11.503906 0.609375 -11.828125 C 0.703125 -12.148438 0.878906 -12.421875 1.140625 -12.640625 C 1.585938 -13.054688 2.085938 -13.507812 2.640625 -14 C 3.203125 -14.488281 3.789062 -14.914062 4.40625 -15.28125 C 5.019531 -15.644531 5.609375 -15.828125 6.171875 -15.828125 C 6.703125 -15.828125 7.066406 -15.582031 7.265625 -15.09375 C 7.460938 -14.601562 7.5625 -14.035156 7.5625 -13.390625 C 7.5625 -12.078125 7.363281 -10.914062 6.96875 -9.90625 C 6.582031 -8.90625 6.117188 -7.96875 5.578125 -7.09375 C 5.046875 -6.226562 4.554688 -5.304688 4.109375 -4.328125 C 5.148438 -4.328125 6.25 -4.488281 7.40625 -4.8125 C 8.570312 -5.132812 9.6875 -5.445312 10.75 -5.75 L 10.84375 -5.75 C 11.0625 -5.75 11.234375 -5.5625 11.359375 -5.1875 C 11.484375 -4.8125 11.546875 -4.382812 11.546875 -3.90625 C 11.546875 -3.457031 11.484375 -3.050781 11.359375 -2.6875 C 11.234375 -2.320312 11.03125 -2.097656 10.75 -2.015625 C 9.6875 -1.734375 8.609375 -1.425781 7.515625 -1.09375 C 6.421875 -0.757812 5.34375 -0.59375 4.28125 -0.59375 C 3.414062 -0.59375 2.804688 -0.859375 2.453125 -1.390625 C 2.109375 -1.921875 1.9375 -2.519531 1.9375 -3.1875 C 1.9375 -3.882812 2.0625 -4.5625 2.3125 -5.21875 C 2.5625 -5.882812 2.828125 -6.484375 3.109375 -7.015625 C 3.523438 -7.828125 3.9375 -8.628906 4.34375 -9.421875 C 4.75 -10.222656 5.148438 -11.054688 5.546875 -11.921875 C 4.847656 -11.617188 4.15625 -11.191406 3.46875 -10.640625 C 2.78125 -10.097656 2.128906 -9.546875 1.515625 -8.984375 Z M 1.515625 -8.984375 "/></g></g></g><g fill="#1e0b1e" fill-opacity="1"><g transform="translate(126.24877, 80.999997)"><g><path d="M -0.84375 8.3125 L 0.59375 -2.3125 C 0.84375 -3.90625 1.09375 -5.515625 1.34375 -7.140625 C 1.59375 -8.765625 1.816406 -10.390625 2.015625 -12.015625 C 2.097656 -12.578125 2.140625 -13.226562 2.140625 -13.96875 C 2.140625 -14.707031 2.222656 -15.363281 2.390625 -15.9375 C 2.554688 -16.507812 2.90625 -16.796875 3.4375 -16.796875 C 3.882812 -16.796875 4.285156 -16.632812 4.640625 -16.3125 C 4.992188 -15.988281 5.296875 -15.671875 5.546875 -15.359375 C 5.796875 -15.054688 5.976562 -14.90625 6.09375 -14.90625 C 6.257812 -14.90625 6.488281 -15.078125 6.78125 -15.421875 C 7.070312 -15.773438 7.398438 -16.117188 7.765625 -16.453125 C 8.128906 -16.796875 8.523438 -16.96875 8.953125 -16.96875 C 9.671875 -16.96875 10.207031 -16.6875 10.5625 -16.125 C 10.914062 -15.5625 11.09375 -15.003906 11.09375 -14.453125 C 11.09375 -13.804688 11.003906 -13.019531 10.828125 -12.09375 C 10.660156 -11.164062 10.410156 -10.195312 10.078125 -9.1875 C 9.742188 -8.1875 9.332031 -7.242188 8.84375 -6.359375 C 8.351562 -5.484375 7.800781 -4.769531 7.1875 -4.21875 C 6.570312 -3.675781 5.882812 -3.40625 5.125 -3.40625 C 4.957031 -3.40625 4.722656 -3.3125 4.421875 -3.125 C 4.128906 -2.945312 3.957031 -2.742188 3.90625 -2.515625 C 3.507812 -0.390625 3.171875 1.75 2.890625 3.90625 C 2.617188 6.0625 2.101562 8.144531 1.34375 10.15625 C 1.226562 10.351562 1.035156 10.535156 0.765625 10.703125 C 0.503906 10.878906 0.265625 11.0625 0.046875 11.25 C -0.117188 10.945312 -0.285156 10.632812 -0.453125 10.3125 C -0.628906 9.988281 -0.71875 9.644531 -0.71875 9.28125 C -0.71875 9.144531 -0.707031 8.988281 -0.6875 8.8125 C -0.675781 8.644531 -0.671875 8.476562 -0.671875 8.3125 Z M 7.46875 -7.46875 C 7.976562 -8.507812 8.425781 -9.585938 8.8125 -10.703125 C 9.207031 -11.828125 9.460938 -13.003906 9.578125 -14.234375 C 9.578125 -14.460938 9.476562 -14.660156 9.28125 -14.828125 C 9.082031 -14.992188 8.914062 -15.078125 8.78125 -15.078125 C 8.414062 -15.078125 8.050781 -14.78125 7.6875 -14.1875 C 7.320312 -13.601562 6.976562 -12.929688 6.65625 -12.171875 C 6.332031 -11.421875 6.046875 -10.796875 5.796875 -10.296875 C 5.796875 -10.265625 5.785156 -10.234375 5.765625 -10.203125 C 5.753906 -10.171875 5.75 -10.128906 5.75 -10.078125 C 5.75 -9.628906 5.9375 -9.191406 6.3125 -8.765625 C 6.695312 -8.347656 7.082031 -7.914062 7.46875 -7.46875 Z M 7.46875 -7.46875 "/></g></g></g><g fill="#1e0b1e" fill-opacity="1"><g transform="translate(138.176763, 80.999997)"><g><path d="M 0.84375 -4.53125 C 0.863281 -5.59375 1.007812 -6.8125 1.28125 -8.1875 C 1.550781 -9.5625 1.9375 -10.882812 2.4375 -12.15625 C 2.9375 -13.425781 3.570312 -14.472656 4.34375 -15.296875 C 5.113281 -16.128906 6.019531 -16.546875 7.0625 -16.546875 C 7.78125 -16.546875 8.378906 -16.332031 8.859375 -15.90625 C 9.335938 -15.488281 9.578125 -14.875 9.578125 -14.0625 C 9.578125 -13.613281 9.441406 -13.097656 9.171875 -12.515625 C 8.910156 -11.929688 8.601562 -11.347656 8.25 -10.765625 C 7.90625 -10.191406 7.59375 -9.710938 7.3125 -9.328125 C 6.96875 -8.734375 6.550781 -8.234375 6.0625 -7.828125 C 5.570312 -7.421875 5.128906 -7.007812 4.734375 -6.59375 C 4.347656 -6.175781 4.15625 -5.613281 4.15625 -4.90625 C 4.15625 -4.65625 4.164062 -4.367188 4.1875 -4.046875 C 4.21875 -3.722656 4.335938 -3.441406 4.546875 -3.203125 C 4.765625 -2.972656 5.125 -2.859375 5.625 -2.859375 C 6.019531 -2.910156 6.398438 -3.019531 6.765625 -3.1875 C 7.128906 -3.351562 7.492188 -3.4375 7.859375 -3.4375 C 8.304688 -3.4375 8.53125 -3.226562 8.53125 -2.8125 C 8.53125 -2.226562 8.296875 -1.695312 7.828125 -1.21875 C 7.367188 -0.738281 6.816406 -0.363281 6.171875 -0.09375 C 5.523438 0.164062 4.925781 0.296875 4.375 0.296875 C 3.363281 0.296875 2.617188 0.0703125 2.140625 -0.375 C 1.660156 -0.820312 1.335938 -1.414062 1.171875 -2.15625 C 1.003906 -2.90625 0.894531 -3.695312 0.84375 -4.53125 Z M 7.9375 -13.140625 C 7.820312 -13.398438 7.703125 -13.640625 7.578125 -13.859375 C 7.453125 -14.085938 7.304688 -14.203125 7.140625 -14.203125 C 6.910156 -14.203125 6.675781 -13.976562 6.4375 -13.53125 C 6.207031 -13.082031 5.992188 -12.582031 5.796875 -12.03125 C 5.597656 -11.488281 5.441406 -11.0625 5.328125 -10.75 C 5.328125 -10.695312 5.390625 -10.582031 5.515625 -10.40625 C 5.648438 -10.238281 5.726562 -10.15625 5.75 -10.15625 C 6 -10.15625 6.257812 -10.335938 6.53125 -10.703125 C 6.800781 -11.066406 7.0625 -11.476562 7.3125 -11.9375 C 7.5625 -12.40625 7.769531 -12.804688 7.9375 -13.140625 Z M 7.9375 -13.140625 "/></g></g><g transform="translate(148.592762, 80.999997)"><g><path d="M 13.015625 -13.359375 L 13.109375 -13.359375 C 13.359375 -13.359375 13.484375 -13.144531 13.484375 -12.71875 C 13.484375 -12.269531 13.304688 -11.90625 12.953125 -11.625 C 12.609375 -11.351562 12.242188 -11.082031 11.859375 -10.8125 C 11.484375 -10.550781 11.253906 -10.164062 11.171875 -9.65625 C 10.921875 -8.226562 10.679688 -6.804688 10.453125 -5.390625 C 10.234375 -3.984375 10.007812 -2.578125 9.78125 -1.171875 C 9.78125 -1.117188 9.773438 -1.0625 9.765625 -1 C 9.753906 -0.945312 9.75 -0.894531 9.75 -0.84375 C 9.75 -0.414062 9.851562 0 10.0625 0.40625 C 10.269531 0.8125 10.375 1.140625 10.375 1.390625 C 10.375 1.804688 10.179688 2.179688 9.796875 2.515625 C 9.421875 2.859375 9.066406 3.03125 8.734375 3.03125 C 8.285156 3.03125 7.914062 2.726562 7.625 2.125 C 7.332031 1.519531 7.1875 0.992188 7.1875 0.546875 C 7.1875 -0.597656 7.296875 -1.757812 7.515625 -2.9375 C 7.742188 -4.113281 7.925781 -5.265625 8.0625 -6.390625 C 8.113281 -6.890625 8.203125 -7.390625 8.328125 -7.890625 C 8.460938 -8.398438 8.53125 -8.863281 8.53125 -9.28125 C 8.53125 -9.78125 8.191406 -10.03125 7.515625 -10.03125 L 7.3125 -10.03125 C 6.382812 -10.03125 5.707031 -9.988281 5.28125 -9.90625 C 4.863281 -9.820312 4.570312 -9.59375 4.40625 -9.21875 C 4.238281 -8.84375 4.054688 -8.191406 3.859375 -7.265625 C 3.660156 -6.285156 3.472656 -5.265625 3.296875 -4.203125 C 3.117188 -3.140625 3.03125 -2.117188 3.03125 -1.140625 C 3.03125 -0.796875 3.0625 -0.414062 3.125 0 C 3.195312 0.414062 3.234375 0.804688 3.234375 1.171875 C 3.234375 2.046875 2.925781 2.484375 2.3125 2.484375 C 1.695312 2.484375 1.296875 2.140625 1.109375 1.453125 C 0.929688 0.765625 0.84375 0.0546875 0.84375 -0.671875 C 0.84375 -1.816406 0.953125 -3.003906 1.171875 -4.234375 C 1.398438 -5.472656 1.613281 -6.679688 1.8125 -7.859375 C 1.832031 -8.023438 1.847656 -8.195312 1.859375 -8.375 C 1.878906 -8.5625 1.890625 -8.738281 1.890625 -8.90625 C 1.890625 -9.632812 1.816406 -10.253906 1.671875 -10.765625 C 1.535156 -11.285156 1.46875 -11.628906 1.46875 -11.796875 C 1.46875 -11.878906 1.492188 -11.921875 1.546875 -11.921875 C 2.054688 -11.921875 2.40625 -12.085938 2.59375 -12.421875 C 2.789062 -12.765625 2.910156 -13.144531 2.953125 -13.5625 C 3.003906 -13.988281 3.03125 -14.335938 3.03125 -14.609375 C 3.03125 -15.171875 2.816406 -15.46875 2.390625 -15.5 C 2.703125 -16.113281 3.019531 -16.675781 3.34375 -17.1875 C 3.664062 -17.707031 3.960938 -18.222656 4.234375 -18.734375 C 4.410156 -18.816406 4.609375 -18.859375 4.828125 -18.859375 C 5.054688 -18.859375 5.265625 -18.738281 5.453125 -18.5 C 5.648438 -18.257812 5.75 -18.03125 5.75 -17.8125 C 5.664062 -17.019531 5.570312 -16.234375 5.46875 -15.453125 C 5.375 -14.671875 5.257812 -13.898438 5.125 -13.140625 C 5.09375 -13.035156 5.070312 -12.929688 5.0625 -12.828125 C 5.050781 -12.734375 5.046875 -12.644531 5.046875 -12.5625 C 5.046875 -12.21875 5.160156 -12 5.390625 -11.90625 C 5.628906 -11.8125 6.003906 -11.765625 6.515625 -11.765625 C 7.347656 -11.765625 7.992188 -11.875 8.453125 -12.09375 C 8.921875 -12.320312 9.195312 -12.742188 9.28125 -13.359375 C 9.363281 -14.023438 9.445312 -14.8125 9.53125 -15.71875 C 9.613281 -16.632812 9.734375 -17.507812 9.890625 -18.34375 C 10.046875 -19.1875 10.253906 -19.890625 10.515625 -20.453125 C 10.785156 -21.015625 11.128906 -21.296875 11.546875 -21.296875 C 11.859375 -21.296875 12.109375 -21.179688 12.296875 -20.953125 C 12.492188 -20.734375 12.59375 -20.441406 12.59375 -20.078125 C 12.59375 -19.066406 12.476562 -18.0625 12.25 -17.0625 C 12.03125 -16.070312 11.921875 -15.085938 11.921875 -14.109375 C 11.921875 -13.546875 12.132812 -13.265625 12.5625 -13.265625 C 12.644531 -13.265625 12.796875 -13.296875 13.015625 -13.359375 Z M 13.015625 -13.359375 "/></g></g></g><g fill="#1e0b1e" fill-opacity="1"><g transform="translate(162.914757, 80.999997)"><g><path d="M 9.359375 -18.609375 C 10.398438 -18.492188 11.128906 -18.320312 11.546875 -18.09375 C 11.972656 -17.875 12.1875 -17.457031 12.1875 -16.84375 C 12.1875 -16.613281 12.160156 -16.34375 12.109375 -16.03125 C 12.066406 -15.726562 11.992188 -15.382812 11.890625 -15 C 11.359375 -12.925781 10.734375 -10.832031 10.015625 -8.71875 C 9.304688 -6.601562 8.695312 -4.566406 8.1875 -2.609375 C 8.382812 -2.441406 8.507812 -2.25 8.5625 -2.03125 C 8.625 -1.820312 8.65625 -1.648438 8.65625 -1.515625 C 8.65625 -1.429688 8.554688 -1.144531 8.359375 -0.65625 C 8.160156 -0.164062 7.898438 0.363281 7.578125 0.9375 C 7.253906 1.519531 6.90625 2.023438 6.53125 2.453125 C 6.15625 2.890625 5.769531 3.109375 5.375 3.109375 C 5.175781 3.109375 4.992188 2.972656 4.828125 2.703125 C 4.660156 2.441406 4.523438 2.15625 4.421875 1.84375 C 4.328125 1.539062 4.28125 1.332031 4.28125 1.21875 C 4.28125 1.082031 4.285156 0.957031 4.296875 0.84375 C 4.316406 0.726562 4.328125 0.613281 4.328125 0.5 C 4.296875 0.5 4.25 0.484375 4.1875 0.453125 C 4.132812 0.429688 4.066406 0.421875 3.984375 0.421875 C 4.148438 -0.472656 4.316406 -1.191406 4.484375 -1.734375 C 4.660156 -2.285156 4.835938 -2.785156 5.015625 -3.234375 C 5.203125 -3.679688 5.382812 -4.175781 5.5625 -4.71875 C 5.75 -5.269531 5.9375 -5.992188 6.125 -6.890625 C 6.21875 -7.191406 6.3125 -7.410156 6.40625 -7.546875 C 6.5 -7.691406 6.582031 -7.851562 6.65625 -8.03125 C 6.726562 -8.21875 6.765625 -8.492188 6.765625 -8.859375 C 6.765625 -9.085938 6.710938 -9.273438 6.609375 -9.421875 C 6.515625 -9.578125 6.398438 -9.65625 6.265625 -9.65625 C 6.035156 -9.65625 5.878906 -9.546875 5.796875 -9.328125 C 5.398438 -8.796875 4.925781 -8.148438 4.375 -7.390625 C 3.832031 -6.640625 3.113281 -5.632812 2.21875 -4.375 C 1.882812 -3.863281 1.507812 -3.25 1.09375 -2.53125 C 0.675781 -1.820312 0.195312 -1.1875 -0.34375 -0.625 C -0.894531 -0.0703125 -1.535156 0.203125 -2.265625 0.203125 C -2.628906 0.203125 -3.039062 0.0546875 -3.5 -0.234375 C -3.96875 -0.523438 -4.203125 -0.851562 -4.203125 -1.21875 C -4.203125 -1.550781 -4.179688 -1.867188 -4.140625 -2.171875 C -4.097656 -2.484375 -4.0625 -2.78125 -4.03125 -3.0625 L -3.78125 -3.0625 C -3.664062 -2.84375 -3.507812 -2.539062 -3.3125 -2.15625 C -3.125 -1.78125 -2.929688 -1.59375 -2.734375 -1.59375 C -2.617188 -1.59375 -2.488281 -1.609375 -2.34375 -1.640625 C -2.207031 -1.671875 -2.125 -1.726562 -2.09375 -1.8125 C -1.226562 -2.894531 -0.320312 -4.15625 0.625 -5.59375 C 1.582031 -7.039062 2.4375 -8.4375 3.1875 -9.78125 C 3.164062 -9.925781 3.132812 -10.070312 3.09375 -10.21875 C 3.050781 -10.375 3.03125 -10.550781 3.03125 -10.75 C 3.03125 -12.238281 3.285156 -13.640625 3.796875 -14.953125 C 4.316406 -16.265625 5.207031 -17.367188 6.46875 -18.265625 C 6.78125 -18.492188 7.1875 -18.617188 7.6875 -18.640625 C 8.1875 -18.671875 8.660156 -18.6875 9.109375 -18.6875 C 9.171875 -18.6875 9.253906 -18.660156 9.359375 -18.609375 Z M 8.4375 -15.796875 C 8.5 -15.898438 8.53125 -16.023438 8.53125 -16.171875 C 8.53125 -16.304688 8.515625 -16.457031 8.484375 -16.625 C 8.453125 -16.800781 8.4375 -16.957031 8.4375 -17.09375 C 8.238281 -17.0625 7.984375 -17.046875 7.671875 -17.046875 C 7.367188 -17.046875 7.164062 -16.976562 7.0625 -16.84375 C 6.613281 -16.195312 6.191406 -15.535156 5.796875 -14.859375 C 5.398438 -14.191406 5.007812 -13.535156 4.625 -12.890625 C 4.789062 -12.523438 4.878906 -12.25 4.890625 -12.0625 C 4.898438 -11.882812 5.003906 -11.796875 5.203125 -11.796875 C 5.460938 -11.796875 5.789062 -12.039062 6.1875 -12.53125 C 6.59375 -13.019531 7.003906 -13.578125 7.421875 -14.203125 C 7.847656 -14.835938 8.1875 -15.367188 8.4375 -15.796875 Z M 8.015625 -1.71875 C 8.015625 -1.863281 8.035156 -2.003906 8.078125 -2.140625 C 8.117188 -2.285156 8.15625 -2.441406 8.1875 -2.609375 C 8.101562 -2.523438 8.046875 -2.34375 8.015625 -2.0625 C 7.992188 -1.78125 7.984375 -1.640625 7.984375 -1.640625 C 7.984375 -1.640625 7.988281 -1.644531 8 -1.65625 C 8.007812 -1.675781 8.015625 -1.695312 8.015625 -1.71875 Z M 8.015625 -1.71875 "/></g></g></g></svg>