<svg xmlns="http://www.w3.org/2000/svg" xmlns:xlink="http://www.w3.org/1999/xlink" width="100" zoomAndPan="magnify" viewBox="0 0 75 30.000001" height="40" preserveAspectRatio="xMidYMid meet" version="1.0"><defs><g/></defs><g fill="#fde1b1" fill-opacity="1"><g transform="translate(11.513652, 18.386926)"><g><path d="M 1.578125 -11.328125 C 1.210938 -11.328125 0.953125 -11.390625 0.796875 -11.515625 C 0.648438 -11.640625 0.578125 -11.863281 0.578125 -12.1875 C 0.578125 -12.707031 0.707031 -13.144531 0.96875 -13.5 C 1.238281 -13.851562 1.597656 -14.03125 2.046875 -14.03125 C 2.335938 -14.03125 2.484375 -13.863281 2.484375 -13.53125 L 2.484375 -13.34375 C 2.484375 -13.0625 2.601562 -12.921875 2.84375 -12.921875 C 2.945312 -12.921875 3.054688 -12.941406 3.171875 -12.984375 C 4.453125 -13.253906 5.742188 -13.46875 7.046875 -13.625 C 8.359375 -13.789062 9.675781 -13.890625 11 -13.921875 C 11.476562 -13.921875 11.96875 -13.910156 12.46875 -13.890625 C 12.976562 -13.878906 13.472656 -13.863281 13.953125 -13.84375 C 14.054688 -13.84375 14.160156 -13.796875 14.265625 -13.703125 C 14.378906 -13.609375 14.492188 -13.519531 14.609375 -13.4375 C 14.492188 -13.375 14.378906 -13.285156 14.265625 -13.171875 C 14.160156 -13.066406 14.054688 -13.003906 13.953125 -12.984375 C 13.097656 -12.878906 12.242188 -12.78125 11.390625 -12.6875 C 10.546875 -12.59375 9.691406 -12.5 8.828125 -12.40625 C 8.523438 -12.382812 8.3125 -12.304688 8.1875 -12.171875 C 8.070312 -12.046875 7.988281 -11.835938 7.9375 -11.546875 C 7.789062 -10.597656 7.625 -9.648438 7.4375 -8.703125 C 7.25 -7.765625 7.066406 -6.820312 6.890625 -5.875 L 5.4375 1.46875 C 5.414062 1.625 5.363281 1.800781 5.28125 2 C 5.207031 2.207031 5.117188 2.382812 5.015625 2.53125 C 4.921875 2.6875 4.804688 2.765625 4.671875 2.765625 C 4.460938 2.765625 4.285156 2.6875 4.140625 2.53125 C 4.003906 2.382812 3.9375 2.195312 3.9375 1.96875 C 4.019531 0.832031 4.171875 -0.269531 4.390625 -1.34375 C 4.609375 -2.414062 4.816406 -3.503906 5.015625 -4.609375 L 6.28125 -11 C 6.289062 -11.070312 6.296875 -11.144531 6.296875 -11.21875 C 6.304688 -11.289062 6.3125 -11.359375 6.3125 -11.421875 C 6.3125 -11.867188 6.109375 -12.09375 5.703125 -12.09375 C 5.628906 -12.09375 5.550781 -12.082031 5.46875 -12.0625 C 5.382812 -12.050781 5.289062 -12.035156 5.1875 -12.015625 C 4.59375 -11.878906 3.992188 -11.757812 3.390625 -11.65625 C 2.785156 -11.550781 2.179688 -11.441406 1.578125 -11.328125 Z M 1.578125 -11.328125 "/></g></g><g transform="translate(23.259435, 18.386926)"><g><path d="M 0.375 -2.65625 C 0.488281 -3.363281 0.601562 -4.070312 0.71875 -4.78125 C 0.832031 -5.488281 0.957031 -6.191406 1.09375 -6.890625 C 1.113281 -7.054688 1.171875 -7.191406 1.265625 -7.296875 C 1.359375 -7.398438 1.488281 -7.453125 1.65625 -7.453125 C 1.820312 -7.453125 1.929688 -7.414062 1.984375 -7.34375 C 2.046875 -7.269531 2.078125 -7.195312 2.078125 -7.125 C 2.078125 -7.039062 2.066406 -6.960938 2.046875 -6.890625 C 2.035156 -6.816406 2.015625 -6.738281 1.984375 -6.65625 C 1.910156 -6.070312 1.828125 -5.476562 1.734375 -4.875 C 1.648438 -4.28125 1.5625 -3.6875 1.46875 -3.09375 C 1.46875 -2.96875 1.5 -2.851562 1.5625 -2.75 C 1.625 -2.644531 1.671875 -2.535156 1.703125 -2.421875 C 1.804688 -2.484375 1.898438 -2.539062 1.984375 -2.59375 C 2.078125 -2.65625 2.148438 -2.734375 2.203125 -2.828125 C 2.585938 -3.503906 2.960938 -4.171875 3.328125 -4.828125 C 3.691406 -5.492188 4.0625 -6.15625 4.4375 -6.8125 C 4.5 -6.925781 4.570312 -7.035156 4.65625 -7.140625 C 4.738281 -7.242188 4.84375 -7.296875 4.96875 -7.296875 C 5.195312 -7.296875 5.367188 -7.210938 5.484375 -7.046875 C 5.597656 -6.890625 5.65625 -6.722656 5.65625 -6.546875 C 5.65625 -6.460938 5.644531 -6.394531 5.625 -6.34375 C 5.46875 -5.664062 5.304688 -4.988281 5.140625 -4.3125 C 4.972656 -3.632812 4.816406 -2.960938 4.671875 -2.296875 C 4.660156 -2.242188 4.648438 -2.1875 4.640625 -2.125 C 4.640625 -2.070312 4.640625 -2.015625 4.640625 -1.953125 C 4.640625 -1.722656 4.675781 -1.503906 4.75 -1.296875 C 4.832031 -1.097656 4.875 -0.941406 4.875 -0.828125 C 4.875 -0.679688 4.773438 -0.535156 4.578125 -0.390625 C 4.378906 -0.242188 4.195312 -0.171875 4.03125 -0.171875 C 3.875 -0.171875 3.738281 -0.253906 3.625 -0.421875 C 3.519531 -0.597656 3.429688 -0.800781 3.359375 -1.03125 C 3.296875 -1.269531 3.234375 -1.472656 3.171875 -1.640625 L 3 -2.171875 C 2.925781 -2.140625 2.835938 -2.101562 2.734375 -2.0625 C 2.640625 -2.019531 2.5625 -1.972656 2.5 -1.921875 C 2.300781 -1.742188 2.117188 -1.546875 1.953125 -1.328125 C 1.785156 -1.117188 1.570312 -1.015625 1.3125 -1.015625 C 1 -1.015625 0.789062 -1.175781 0.6875 -1.5 C 0.582031 -1.820312 0.5 -2.207031 0.4375 -2.65625 Z M 0.375 -2.65625 "/></g></g><g transform="translate(29.294667, 18.386926)"><g><path d="M 0.6875 -4.09375 C 0.644531 -4.050781 0.613281 -4.03125 0.59375 -4.03125 C 0.488281 -4.03125 0.410156 -4.082031 0.359375 -4.1875 C 0.304688 -4.300781 0.265625 -4.421875 0.234375 -4.546875 C 0.210938 -4.679688 0.203125 -4.789062 0.203125 -4.875 C 0.203125 -4.957031 0.203125 -4.96875 0.203125 -4.90625 C 0.203125 -5.070312 0.222656 -5.226562 0.265625 -5.375 C 0.316406 -5.519531 0.398438 -5.644531 0.515625 -5.75 C 0.722656 -5.9375 0.953125 -6.140625 1.203125 -6.359375 C 1.453125 -6.585938 1.71875 -6.785156 2 -6.953125 C 2.28125 -7.117188 2.550781 -7.203125 2.8125 -7.203125 C 3.050781 -7.203125 3.210938 -7.085938 3.296875 -6.859375 C 3.390625 -6.640625 3.4375 -6.382812 3.4375 -6.09375 C 3.4375 -5.488281 3.347656 -4.957031 3.171875 -4.5 C 2.992188 -4.039062 2.78125 -3.613281 2.53125 -3.21875 C 2.289062 -2.832031 2.070312 -2.414062 1.875 -1.96875 C 2.34375 -1.96875 2.835938 -2.039062 3.359375 -2.1875 C 3.890625 -2.332031 4.398438 -2.472656 4.890625 -2.609375 L 4.921875 -2.609375 C 5.023438 -2.609375 5.101562 -2.519531 5.15625 -2.34375 C 5.21875 -2.175781 5.25 -1.988281 5.25 -1.78125 C 5.25 -1.570312 5.21875 -1.382812 5.15625 -1.21875 C 5.101562 -1.050781 5.015625 -0.953125 4.890625 -0.921875 C 4.398438 -0.785156 3.90625 -0.640625 3.40625 -0.484375 C 2.914062 -0.335938 2.429688 -0.265625 1.953125 -0.265625 C 1.554688 -0.265625 1.273438 -0.382812 1.109375 -0.625 C 0.953125 -0.875 0.875 -1.148438 0.875 -1.453125 C 0.875 -1.765625 0.929688 -2.070312 1.046875 -2.375 C 1.160156 -2.675781 1.28125 -2.945312 1.40625 -3.1875 C 1.601562 -3.5625 1.789062 -3.925781 1.96875 -4.28125 C 2.15625 -4.644531 2.335938 -5.023438 2.515625 -5.421875 C 2.203125 -5.285156 1.890625 -5.09375 1.578125 -4.84375 C 1.265625 -4.59375 0.96875 -4.34375 0.6875 -4.09375 Z M 0.6875 -4.09375 "/></g></g></g><g fill="#fde1b1" fill-opacity="1"><g transform="translate(34.737832, 18.386926)"><g><path d="M -0.375 3.78125 L 0.265625 -1.046875 C 0.378906 -1.773438 0.492188 -2.507812 0.609375 -3.25 C 0.722656 -3.988281 0.828125 -4.722656 0.921875 -5.453125 C 0.953125 -5.710938 0.96875 -6.007812 0.96875 -6.34375 C 0.96875 -6.6875 1.003906 -6.988281 1.078125 -7.25 C 1.160156 -7.507812 1.320312 -7.640625 1.5625 -7.640625 C 1.769531 -7.640625 1.953125 -7.566406 2.109375 -7.421875 C 2.265625 -7.273438 2.398438 -7.128906 2.515625 -6.984375 C 2.628906 -6.847656 2.710938 -6.78125 2.765625 -6.78125 C 2.847656 -6.78125 2.953125 -6.859375 3.078125 -7.015625 C 3.210938 -7.171875 3.363281 -7.328125 3.53125 -7.484375 C 3.695312 -7.640625 3.875 -7.71875 4.0625 -7.71875 C 4.394531 -7.71875 4.640625 -7.585938 4.796875 -7.328125 C 4.960938 -7.078125 5.046875 -6.820312 5.046875 -6.5625 C 5.046875 -6.269531 5.003906 -5.914062 4.921875 -5.5 C 4.847656 -5.082031 4.734375 -4.644531 4.578125 -4.1875 C 4.429688 -3.726562 4.242188 -3.296875 4.015625 -2.890625 C 3.796875 -2.492188 3.546875 -2.171875 3.265625 -1.921875 C 2.984375 -1.671875 2.671875 -1.546875 2.328125 -1.546875 C 2.253906 -1.546875 2.148438 -1.503906 2.015625 -1.421875 C 1.878906 -1.335938 1.800781 -1.242188 1.78125 -1.140625 C 1.601562 -0.171875 1.445312 0.800781 1.3125 1.78125 C 1.1875 2.757812 0.953125 3.707031 0.609375 4.625 C 0.554688 4.707031 0.46875 4.785156 0.34375 4.859375 C 0.226562 4.941406 0.117188 5.023438 0.015625 5.109375 C -0.0546875 4.972656 -0.128906 4.832031 -0.203125 4.6875 C -0.285156 4.539062 -0.328125 4.382812 -0.328125 4.21875 C -0.328125 4.15625 -0.320312 4.082031 -0.3125 4 C -0.3125 3.925781 -0.3125 3.851562 -0.3125 3.78125 Z M 3.40625 -3.40625 C 3.632812 -3.875 3.835938 -4.359375 4.015625 -4.859375 C 4.191406 -5.367188 4.304688 -5.90625 4.359375 -6.46875 C 4.359375 -6.570312 4.3125 -6.660156 4.21875 -6.734375 C 4.132812 -6.816406 4.054688 -6.859375 3.984375 -6.859375 C 3.828125 -6.859375 3.664062 -6.722656 3.5 -6.453125 C 3.332031 -6.179688 3.175781 -5.875 3.03125 -5.53125 C 2.882812 -5.1875 2.753906 -4.898438 2.640625 -4.671875 C 2.640625 -4.660156 2.632812 -4.648438 2.625 -4.640625 C 2.613281 -4.628906 2.609375 -4.609375 2.609375 -4.578125 C 2.609375 -4.378906 2.691406 -4.179688 2.859375 -3.984375 C 3.035156 -3.796875 3.21875 -3.601562 3.40625 -3.40625 Z M 3.40625 -3.40625 "/></g></g></g><g fill="#fde1b1" fill-opacity="1"><g transform="translate(40.161899, 18.386926)"><g><path d="M 0.375 -2.0625 C 0.394531 -2.539062 0.460938 -3.09375 0.578125 -3.71875 C 0.703125 -4.34375 0.878906 -4.941406 1.109375 -5.515625 C 1.335938 -6.097656 1.625 -6.578125 1.96875 -6.953125 C 2.320312 -7.328125 2.734375 -7.515625 3.203125 -7.515625 C 3.535156 -7.515625 3.8125 -7.421875 4.03125 -7.234375 C 4.25 -7.046875 4.359375 -6.765625 4.359375 -6.390625 C 4.359375 -6.191406 4.296875 -5.957031 4.171875 -5.6875 C 4.046875 -5.414062 3.90625 -5.148438 3.75 -4.890625 C 3.59375 -4.628906 3.453125 -4.410156 3.328125 -4.234375 C 3.171875 -3.972656 2.976562 -3.75 2.75 -3.5625 C 2.53125 -3.375 2.332031 -3.1875 2.15625 -3 C 1.976562 -2.8125 1.890625 -2.554688 1.890625 -2.234375 C 1.890625 -2.117188 1.894531 -1.988281 1.90625 -1.84375 C 1.914062 -1.695312 1.96875 -1.566406 2.0625 -1.453125 C 2.164062 -1.347656 2.332031 -1.296875 2.5625 -1.296875 C 2.738281 -1.328125 2.910156 -1.378906 3.078125 -1.453125 C 3.242188 -1.523438 3.410156 -1.5625 3.578125 -1.5625 C 3.773438 -1.5625 3.875 -1.46875 3.875 -1.28125 C 3.875 -1.007812 3.769531 -0.765625 3.5625 -0.546875 C 3.351562 -0.335938 3.101562 -0.171875 2.8125 -0.046875 C 2.519531 0.078125 2.242188 0.140625 1.984375 0.140625 C 1.523438 0.140625 1.1875 0.0351562 0.96875 -0.171875 C 0.757812 -0.378906 0.613281 -0.648438 0.53125 -0.984375 C 0.457031 -1.316406 0.40625 -1.675781 0.375 -2.0625 Z M 3.609375 -5.96875 C 3.554688 -6.082031 3.5 -6.191406 3.4375 -6.296875 C 3.382812 -6.398438 3.320312 -6.453125 3.25 -6.453125 C 3.144531 -6.453125 3.035156 -6.347656 2.921875 -6.140625 C 2.816406 -5.941406 2.71875 -5.71875 2.625 -5.46875 C 2.539062 -5.21875 2.472656 -5.023438 2.421875 -4.890625 C 2.421875 -4.859375 2.445312 -4.804688 2.5 -4.734375 C 2.5625 -4.660156 2.597656 -4.625 2.609375 -4.625 C 2.722656 -4.625 2.84375 -4.703125 2.96875 -4.859375 C 3.09375 -5.023438 3.210938 -5.210938 3.328125 -5.421875 C 3.441406 -5.640625 3.535156 -5.820312 3.609375 -5.96875 Z M 3.609375 -5.96875 "/></g></g><g transform="translate(44.89841, 18.386926)"><g><path d="M 5.921875 -6.078125 L 5.953125 -6.078125 C 6.066406 -6.078125 6.125 -5.976562 6.125 -5.78125 C 6.125 -5.582031 6.046875 -5.414062 5.890625 -5.28125 C 5.734375 -5.15625 5.566406 -5.03125 5.390625 -4.90625 C 5.222656 -4.789062 5.117188 -4.617188 5.078125 -4.390625 C 4.960938 -3.742188 4.851562 -3.097656 4.75 -2.453125 C 4.65625 -1.804688 4.554688 -1.164062 4.453125 -0.53125 C 4.453125 -0.507812 4.445312 -0.484375 4.4375 -0.453125 C 4.4375 -0.429688 4.4375 -0.40625 4.4375 -0.375 C 4.4375 -0.1875 4.484375 -0.00390625 4.578125 0.171875 C 4.671875 0.359375 4.71875 0.507812 4.71875 0.625 C 4.71875 0.820312 4.628906 0.992188 4.453125 1.140625 C 4.285156 1.296875 4.125 1.375 3.96875 1.375 C 3.769531 1.375 3.601562 1.234375 3.46875 0.953125 C 3.332031 0.679688 3.265625 0.445312 3.265625 0.25 C 3.265625 -0.269531 3.316406 -0.796875 3.421875 -1.328125 C 3.523438 -1.867188 3.609375 -2.394531 3.671875 -2.90625 C 3.691406 -3.132812 3.726562 -3.363281 3.78125 -3.59375 C 3.84375 -3.820312 3.875 -4.03125 3.875 -4.21875 C 3.875 -4.445312 3.722656 -4.5625 3.421875 -4.5625 L 3.328125 -4.5625 C 2.898438 -4.5625 2.59375 -4.539062 2.40625 -4.5 C 2.21875 -4.46875 2.082031 -4.363281 2 -4.1875 C 1.925781 -4.019531 1.84375 -3.722656 1.75 -3.296875 C 1.664062 -2.859375 1.582031 -2.394531 1.5 -1.90625 C 1.414062 -1.425781 1.375 -0.960938 1.375 -0.515625 C 1.375 -0.359375 1.390625 -0.1875 1.421875 0 C 1.453125 0.1875 1.46875 0.363281 1.46875 0.53125 C 1.46875 0.925781 1.328125 1.125 1.046875 1.125 C 0.765625 1.125 0.582031 0.96875 0.5 0.65625 C 0.414062 0.34375 0.375 0.0195312 0.375 -0.3125 C 0.375 -0.832031 0.425781 -1.367188 0.53125 -1.921875 C 0.632812 -2.484375 0.734375 -3.035156 0.828125 -3.578125 C 0.835938 -3.648438 0.84375 -3.726562 0.84375 -3.8125 C 0.851562 -3.894531 0.859375 -3.972656 0.859375 -4.046875 C 0.859375 -4.378906 0.828125 -4.660156 0.765625 -4.890625 C 0.703125 -5.128906 0.671875 -5.285156 0.671875 -5.359375 C 0.671875 -5.398438 0.679688 -5.421875 0.703125 -5.421875 C 0.929688 -5.421875 1.085938 -5.492188 1.171875 -5.640625 C 1.265625 -5.796875 1.320312 -5.96875 1.34375 -6.15625 C 1.363281 -6.351562 1.375 -6.515625 1.375 -6.640625 C 1.375 -6.898438 1.28125 -7.035156 1.09375 -7.046875 C 1.226562 -7.328125 1.367188 -7.582031 1.515625 -7.8125 C 1.660156 -8.050781 1.796875 -8.285156 1.921875 -8.515625 C 2.003906 -8.554688 2.097656 -8.578125 2.203125 -8.578125 C 2.296875 -8.578125 2.382812 -8.519531 2.46875 -8.40625 C 2.5625 -8.300781 2.609375 -8.195312 2.609375 -8.09375 C 2.578125 -7.738281 2.535156 -7.378906 2.484375 -7.015625 C 2.441406 -6.660156 2.390625 -6.3125 2.328125 -5.96875 C 2.316406 -5.925781 2.304688 -5.878906 2.296875 -5.828125 C 2.296875 -5.785156 2.296875 -5.742188 2.296875 -5.703125 C 2.296875 -5.554688 2.347656 -5.457031 2.453125 -5.40625 C 2.554688 -5.363281 2.722656 -5.34375 2.953125 -5.34375 C 3.335938 -5.34375 3.632812 -5.394531 3.84375 -5.5 C 4.050781 -5.601562 4.175781 -5.796875 4.21875 -6.078125 C 4.257812 -6.378906 4.296875 -6.734375 4.328125 -7.140625 C 4.367188 -7.554688 4.425781 -7.957031 4.5 -8.34375 C 4.570312 -8.726562 4.664062 -9.046875 4.78125 -9.296875 C 4.90625 -9.554688 5.0625 -9.6875 5.25 -9.6875 C 5.382812 -9.6875 5.5 -9.632812 5.59375 -9.53125 C 5.6875 -9.425781 5.734375 -9.289062 5.734375 -9.125 C 5.734375 -8.664062 5.679688 -8.207031 5.578125 -7.75 C 5.472656 -7.300781 5.421875 -6.859375 5.421875 -6.421875 C 5.421875 -6.160156 5.515625 -6.03125 5.703125 -6.03125 C 5.742188 -6.03125 5.816406 -6.046875 5.921875 -6.078125 Z M 5.921875 -6.078125 "/></g></g></g><g fill="#fde1b1" fill-opacity="1"><g transform="translate(51.41111, 18.386926)"><g><path d="M 4.265625 -8.453125 C 4.734375 -8.398438 5.0625 -8.320312 5.25 -8.21875 C 5.4375 -8.125 5.53125 -7.9375 5.53125 -7.65625 C 5.53125 -7.550781 5.519531 -7.425781 5.5 -7.28125 C 5.488281 -7.144531 5.457031 -6.988281 5.40625 -6.8125 C 5.164062 -5.875 4.878906 -4.921875 4.546875 -3.953125 C 4.222656 -2.992188 3.945312 -2.070312 3.71875 -1.1875 C 3.8125 -1.101562 3.867188 -1.015625 3.890625 -0.921875 C 3.921875 -0.828125 3.9375 -0.75 3.9375 -0.6875 C 3.9375 -0.644531 3.890625 -0.515625 3.796875 -0.296875 C 3.710938 -0.078125 3.597656 0.160156 3.453125 0.421875 C 3.304688 0.691406 3.144531 0.921875 2.96875 1.109375 C 2.800781 1.304688 2.625 1.40625 2.4375 1.40625 C 2.351562 1.40625 2.269531 1.34375 2.1875 1.21875 C 2.113281 1.101562 2.054688 0.972656 2.015625 0.828125 C 1.972656 0.691406 1.953125 0.597656 1.953125 0.546875 C 1.953125 0.484375 1.953125 0.425781 1.953125 0.375 C 1.960938 0.332031 1.96875 0.285156 1.96875 0.234375 C 1.957031 0.234375 1.9375 0.222656 1.90625 0.203125 C 1.882812 0.191406 1.851562 0.1875 1.8125 0.1875 C 1.882812 -0.21875 1.957031 -0.546875 2.03125 -0.796875 C 2.113281 -1.046875 2.195312 -1.269531 2.28125 -1.46875 C 2.363281 -1.675781 2.445312 -1.898438 2.53125 -2.140625 C 2.613281 -2.390625 2.695312 -2.71875 2.78125 -3.125 C 2.820312 -3.269531 2.863281 -3.375 2.90625 -3.4375 C 2.957031 -3.5 3 -3.570312 3.03125 -3.65625 C 3.0625 -3.738281 3.078125 -3.863281 3.078125 -4.03125 C 3.078125 -4.132812 3.050781 -4.21875 3 -4.28125 C 2.957031 -4.351562 2.90625 -4.390625 2.84375 -4.390625 C 2.738281 -4.390625 2.671875 -4.335938 2.640625 -4.234375 C 2.460938 -3.992188 2.25 -3.703125 2 -3.359375 C 1.75 -3.015625 1.421875 -2.554688 1.015625 -1.984375 C 0.859375 -1.753906 0.679688 -1.476562 0.484375 -1.15625 C 0.296875 -0.832031 0.0820312 -0.539062 -0.15625 -0.28125 C -0.40625 -0.03125 -0.695312 0.09375 -1.03125 0.09375 C -1.195312 0.09375 -1.382812 0.0234375 -1.59375 -0.109375 C -1.800781 -0.242188 -1.90625 -0.390625 -1.90625 -0.546875 C -1.90625 -0.703125 -1.894531 -0.847656 -1.875 -0.984375 C -1.863281 -1.128906 -1.847656 -1.265625 -1.828125 -1.390625 L -1.71875 -1.390625 C -1.664062 -1.285156 -1.59375 -1.144531 -1.5 -0.96875 C -1.414062 -0.800781 -1.328125 -0.71875 -1.234375 -0.71875 C -1.191406 -0.71875 -1.132812 -0.722656 -1.0625 -0.734375 C -1 -0.753906 -0.960938 -0.785156 -0.953125 -0.828125 C -0.554688 -1.316406 -0.144531 -1.890625 0.28125 -2.546875 C 0.71875 -3.203125 1.109375 -3.835938 1.453125 -4.453125 C 1.441406 -4.515625 1.425781 -4.578125 1.40625 -4.640625 C 1.382812 -4.710938 1.375 -4.796875 1.375 -4.890625 C 1.375 -5.566406 1.488281 -6.203125 1.71875 -6.796875 C 1.957031 -7.390625 2.363281 -7.894531 2.9375 -8.3125 C 3.082031 -8.40625 3.269531 -8.457031 3.5 -8.46875 C 3.726562 -8.488281 3.941406 -8.5 4.140625 -8.5 C 4.171875 -8.5 4.210938 -8.484375 4.265625 -8.453125 Z M 3.84375 -7.171875 C 3.863281 -7.222656 3.875 -7.28125 3.875 -7.34375 C 3.875 -7.414062 3.867188 -7.488281 3.859375 -7.5625 C 3.847656 -7.632812 3.84375 -7.703125 3.84375 -7.765625 C 3.75 -7.753906 3.628906 -7.75 3.484375 -7.75 C 3.347656 -7.75 3.253906 -7.71875 3.203125 -7.65625 C 3.003906 -7.363281 2.816406 -7.0625 2.640625 -6.75 C 2.460938 -6.445312 2.28125 -6.148438 2.09375 -5.859375 C 2.175781 -5.691406 2.21875 -5.566406 2.21875 -5.484375 C 2.226562 -5.398438 2.28125 -5.359375 2.375 -5.359375 C 2.488281 -5.359375 2.632812 -5.46875 2.8125 -5.6875 C 3 -5.914062 3.1875 -6.171875 3.375 -6.453125 C 3.570312 -6.742188 3.726562 -6.984375 3.84375 -7.171875 Z M 3.640625 -0.78125 C 3.640625 -0.84375 3.648438 -0.90625 3.671875 -0.96875 C 3.691406 -1.03125 3.707031 -1.101562 3.71875 -1.1875 C 3.6875 -1.144531 3.660156 -1.0625 3.640625 -0.9375 C 3.628906 -0.8125 3.625 -0.75 3.625 -0.75 C 3.632812 -0.757812 3.640625 -0.769531 3.640625 -0.78125 Z M 3.640625 -0.78125 "/></g></g></g><g fill="#fde1b1" fill-opacity="1"><g transform="translate(57.523512, 18.386926)"><g/></g></g></svg>