<?xml version="1.0" standalone="no"?>
<!DOCTYPE svg PUBLIC "-//W3C//DTD SVG 20010904//EN"
 "http://www.w3.org/TR/2001/REC-SVG-20010904/DTD/svg10.dtd">
<svg version="1.0" xmlns="http://www.w3.org/2000/svg"
 width="1050.000000pt" height="600.000000pt" viewBox="0 0 1050.000000 600.000000"
 preserveAspectRatio="xMidYMid meet">

<g transform="translate(0.000000,600.000000) scale(0.100000,-0.100000)"
fill="#000000" stroke="none">
<path d="M5095 5631 c-78 -22 -226 -96 -298 -149 -31 -23 -59 -42 -62 -42 -3
0 2 14 12 31 19 33 92 98 152 137 29 18 31 22 11 16 -94 -25 -250 -119 -337
-202 -61 -59 -68 -86 -68 -262 0 -127 19 -221 63 -302 25 -48 60 -68 47 -28
-9 27 -9 200 0 242 12 60 47 162 75 218 49 97 131 159 209 160 33 0 34 0 27
-38 -3 -22 -24 -74 -46 -116 -42 -81 -70 -168 -70 -222 0 -42 35 -103 96 -166
89 -93 142 -165 183 -250 39 -79 91 -239 91 -279 0 -11 5 -19 10 -19 26 0 33
67 40 340 4 157 13 328 21 380 7 52 9 111 5 131 -9 48 -47 95 -126 155 -73 56
-85 87 -36 92 38 5 172 -26 221 -50 155 -78 323 -230 376 -341 16 -34 29 -71
29 -81 0 -16 2 -18 13 -7 19 19 13 139 -12 219 -33 109 -151 269 -220 298 -95
40 -279 57 -418 39 l-48 -6 65 60 c35 34 62 61 60 60 -3 0 -32 -8 -65 -18z"/>
<path d="M6320 5455 c0 -3 12 -18 26 -32 39 -39 17 -49 -55 -24 -102 35 -177
25 -240 -33 -36 -34 -81 -118 -81 -153 0 -12 24 -57 53 -100 28 -43 63 -100
77 -125 23 -45 24 -50 12 -118 -21 -122 -10 -340 18 -340 6 0 69 136 82 180 5
15 -12 73 -56 195 -23 64 -24 78 -17 150 17 166 82 220 234 191 36 -7 37 -6
32 17 -9 33 18 55 43 36 26 -21 62 -40 62 -33 0 4 -6 12 -14 18 -8 6 -17 22
-21 36 -6 20 -5 22 5 13 7 -6 18 -9 24 -7 14 5 68 -58 83 -99 8 -23 12 -26 12
-12 2 58 -81 170 -154 208 -53 28 -125 46 -125 32z"/>
<path d="M3740 5134 c-30 -8 -57 -18 -60 -22 -3 -5 -19 -18 -37 -30 -17 -12
-48 -45 -68 -72 -30 -41 -35 -55 -30 -80 4 -16 11 -30 17 -30 6 0 8 10 4 25
-5 19 -3 23 9 19 10 -4 15 0 15 10 0 9 5 16 12 16 6 0 20 7 30 17 26 23 31 12
18 -37 -6 -23 -10 -44 -8 -46 2 -1 30 10 62 26 80 41 171 43 209 5 27 -28 42
-83 31 -118 -3 -12 -28 -84 -55 -160 -27 -75 -49 -150 -49 -166 0 -43 25 -95
54 -111 14 -7 26 -19 26 -27 0 -7 14 -35 31 -63 30 -49 31 -53 24 -128 -11
-115 -15 -122 -73 -122 -27 0 -69 7 -92 15 -57 20 -64 18 -15 -5 22 -10 57
-19 77 -19 20 -1 48 -5 62 -11 22 -8 26 -6 35 23 5 18 15 100 21 182 6 83 13
165 16 183 l5 33 78 -80 c92 -96 121 -105 121 -40 0 50 -59 230 -101 310 -18
32 -31 69 -31 81 0 13 21 70 47 128 43 96 46 108 36 141 -17 56 -74 124 -121
143 -45 18 -128 21 -177 7 -26 -7 -31 -7 -26 5 7 18 -24 17 -97 -2z"/>
<path d="M6591 5084 c0 -11 3 -14 6 -6 3 7 2 16 -1 19 -3 4 -6 -2 -5 -13z"/>
<path d="M4322 5040 c0 -14 2 -19 5 -12 2 6 2 18 0 25 -3 6 -5 1 -5 -13z"/>
<path d="M4274 5017 c-59 -117 -74 -149 -89 -197 -10 -30 -22 -63 -26 -72 -5
-10 -6 -24 -3 -32 3 -8 1 -38 -5 -65 -14 -64 -9 -75 33 -78 47 -4 61 18 75
117 7 47 22 127 33 177 12 53 18 104 14 120 -4 16 -7 34 -8 41 -2 18 -12 14
-24 -11z"/>
<path d="M3521 4914 c0 -11 3 -14 6 -6 3 7 2 16 -1 19 -3 4 -6 -2 -5 -13z"/>
<path d="M3512 4865 c0 -16 2 -22 5 -12 2 9 2 23 0 30 -3 6 -5 -1 -5 -18z"/>
<path d="M3501 4814 c0 -11 3 -14 6 -6 3 7 2 16 -1 19 -3 4 -6 -2 -5 -13z"/>
<path d="M5626 4734 c-55 -20 -76 -42 -76 -78 1 -31 11 -50 42 -74 14 -11 22
-9 56 13 80 53 203 70 287 40 22 -8 45 -15 50 -14 21 0 -73 72 -131 100 -71
33 -159 38 -228 13z"/>
<path d="M6274 4636 c-13 -25 -15 -41 -8 -57 9 -20 10 -20 23 8 7 15 17 35 22
45 5 11 3 20 -6 28 -12 10 -18 5 -31 -24z"/>
<path d="M4497 4586 c-112 -47 -194 -122 -248 -228 -31 -62 -50 -146 -31 -134
7 4 12 15 12 25 0 52 107 167 194 207 60 28 166 32 231 9 47 -17 62 -8 71 41
14 76 -16 104 -114 104 -37 0 -78 -9 -115 -24z"/>
<path d="M5805 4470 c-3 -5 -16 -10 -28 -10 -89 0 -165 -62 -193 -155 -28 -94
-25 -224 8 -303 32 -77 85 -150 116 -158 35 -10 167 20 270 60 50 20 105 36
122 36 39 0 41 27 3 36 -41 10 -43 12 -32 42 6 15 12 68 14 117 2 50 7 104 10
120 6 29 6 29 -7 7 -14 -23 -14 -23 -31 14 -10 20 -15 45 -11 57 5 15 3 19 -9
14 -23 -9 -47 24 -40 53 6 22 4 23 -9 12 -24 -20 -49 -5 -42 25 6 23 5 24 -14
14 -33 -18 -51 -14 -45 9 5 19 4 20 -22 8 -23 -10 -29 -10 -33 0 -5 15 -18 16
-27 2z m113 -152 c31 -31 6 -128 -33 -128 -21 0 -54 33 -61 62 -11 48 61 99
94 66z m55 -222 c7 -17 -22 -31 -36 -17 -5 5 -6 14 -3 20 10 16 33 14 39 -3z
m55 -44 c2 -7 -2 -27 -8 -46 -28 -85 -100 -131 -191 -123 -66 6 -86 14 -71 29
6 6 9 16 6 22 -3 7 14 11 48 12 67 1 109 23 150 78 32 41 58 52 66 28z"/>
<path d="M4510 4282 c0 -10 -8 -13 -26 -9 -18 3 -24 1 -20 -8 5 -15 -20 -29
-45 -26 -10 1 -15 -6 -15 -21 1 -17 -5 -24 -22 -26 -12 -2 -20 -8 -17 -13 10
-15 -6 -51 -19 -46 -9 4 -12 -7 -12 -36 1 -34 -2 -42 -16 -41 -22 2 -24 -12
-3 -20 9 -3 15 -18 15 -35 0 -25 -3 -29 -17 -24 -14 5 -13 1 5 -16 12 -12 22
-31 22 -42 0 -10 11 -47 25 -81 14 -34 25 -65 25 -70 0 -5 -11 -13 -25 -18
-22 -9 -36 -40 -17 -40 4 0 53 -1 109 -3 59 -1 93 1 80 6 -36 14 -86 56 -103
89 -15 29 -15 30 1 25 9 -4 13 -3 10 2 -3 5 -1 12 5 16 5 3 10 2 10 -4 0 -20
89 -62 142 -68 44 -4 63 -1 107 20 45 22 55 24 67 12 24 -23 -26 -71 -99 -94
l-62 -20 70 0 c39 0 86 5 105 12 30 10 38 20 53 67 27 81 32 191 13 275 -38
161 -127 238 -283 248 -50 2 -63 0 -63 -11z m218 -144 c16 -16 15 -79 -2 -100
-21 -29 -63 -23 -81 12 -20 39 -19 56 5 80 22 22 60 26 78 8z m30 -235 c-2
-10 -10 -18 -18 -18 -8 0 -16 8 -18 18 -2 12 3 17 18 17 15 0 20 -5 18 -17z
m-238 -6 c0 -8 -3 -17 -7 -20 -9 -9 -34 13 -27 24 8 14 34 11 34 -4z"/>
<path d="M6146 4281 c-11 -18 6 -42 28 -39 29 4 29 42 -1 46 -11 2 -24 -1 -27
-7z"/>
<path d="M6369 4240 c-77 -41 -134 -123 -140 -200 -5 -88 3 -97 53 -54 38 31
109 68 165 84 23 7 40 16 38 20 -7 12 22 20 71 20 l44 0 -17 26 c-9 15 -40 37
-67 50 -30 14 -44 25 -35 28 7 2 21 6 29 9 22 6 -15 23 -65 30 -29 4 -50 0
-76 -13z"/>
<path d="M6104 4189 c-10 -17 13 -36 27 -22 12 12 4 33 -11 33 -5 0 -12 -5
-16 -11z"/>
<path d="M4095 4020 c4 -19 7 -51 7 -71 0 -31 3 -36 19 -32 23 6 23 2 3 66
-20 63 -40 88 -29 37z"/>
<path d="M4196 4035 c-6 -18 16 -30 39 -21 8 3 15 12 15 21 0 20 -46 20 -54 0z"/>
<path d="M4240 3935 c0 -20 4 -26 18 -23 9 2 17 12 17 23 0 11 -8 21 -17 23
-14 3 -18 -3 -18 -23z"/>
<path d="M3844 3916 c-23 -7 -51 -20 -63 -28 -21 -15 -20 -16 21 -22 l43 -7
-36 -19 c-48 -25 -95 -73 -120 -121 -10 -22 -17 -39 -14 -39 3 0 27 11 53 25
26 13 63 28 82 31 l35 7 -20 -23 -20 -23 20 7 c11 4 56 12 100 18 74 10 86 9
160 -13 89 -27 115 -27 115 2 0 26 -19 57 -59 96 -32 32 -33 33 -10 31 18 -2
24 2 25 17 1 14 0 15 -3 3 -5 -20 -14 -18 -109 29 -81 40 -141 49 -200 29z"/>
<path d="M4145 3913 c-34 -9 -54 -53 -24 -53 5 0 9 7 9 16 0 9 9 18 20 21 11
3 20 9 20 14 0 5 -1 8 -2 8 -2 -1 -12 -4 -23 -6z"/>
<path d="M6170 3850 c0 -23 10 -26 28 -8 18 18 15 28 -8 28 -13 0 -20 -7 -20
-20z"/>
<path d="M6390 3860 c-73 -7 -180 -45 -194 -69 -5 -7 9 -11 44 -11 66 0 163
-25 219 -56 39 -21 52 -23 107 -18 35 4 64 8 64 10 0 16 -30 66 -59 98 l-36
39 35 -6 c35 -6 35 -6 10 8 -27 15 -71 17 -190 5z"/>
<path d="M4167 3825 c-4 -8 -2 -17 2 -20 5 -2 11 4 14 15 6 23 -8 27 -16 5z"/>
<path d="M5470 3738 c0 -29 -23 -58 -46 -58 -8 0 -33 -18 -56 -40 -56 -53 -88
-59 -139 -25 -21 15 -39 34 -39 41 0 17 -17 18 -23 2 -3 -7 -6 -3 -6 10 -1 12
-4 22 -9 22 -4 0 -20 12 -36 26 -28 27 -28 27 -60 9 -37 -22 -46 -33 -46 -62
0 -26 53 -73 83 -73 12 0 38 -19 63 -45 29 -32 49 -45 68 -45 40 0 43 -26 12
-86 -36 -68 -84 -94 -177 -94 -60 -1 -63 -2 -44 -16 14 -11 37 -14 76 -12 40
2 63 -2 75 -12 39 -31 65 -40 116 -40 64 0 126 27 164 69 17 19 37 31 53 31
37 0 121 42 152 76 34 37 46 74 25 74 -9 0 -16 -6 -16 -14 0 -19 -63 -73 -107
-91 -78 -33 -172 -10 -227 55 -35 42 -33 52 13 71 28 12 46 29 60 57 11 22 30
43 41 47 50 16 76 90 45 131 -14 18 -14 18 -15 -8z m-337 -52 c12 -9 14 -16 8
-21 -6 -3 -11 -1 -11 5 0 6 -5 8 -12 4 -6 -4 -8 -3 -4 4 3 5 0 13 -6 15 -7 3
-8 6 -3 6 6 0 18 -6 28 -13z m184 -371 c-9 -8 -13 -24 -10 -36 4 -15 3 -20 -6
-15 -6 4 -9 12 -6 17 4 5 1 9 -4 9 -6 0 -11 -6 -11 -14 0 -9 -7 -12 -20 -9
-29 8 -25 20 13 43 39 24 66 27 44 5z"/>
<path d="M6160 3706 c0 -28 24 -41 40 -21 16 20 5 45 -20 45 -14 0 -20 -7 -20
-24z"/>
<path d="M4249 3669 c-9 -17 -8 -25 5 -37 12 -13 18 -13 30 -2 9 7 16 23 16
36 0 31 -35 33 -51 3z"/>
<path d="M6538 3682 c-15 -6 -15 -9 2 -30 13 -15 20 -18 24 -10 6 16 46 -26
46 -48 0 -27 18 -14 24 17 14 71 10 79 -36 78 -24 0 -51 -3 -60 -7z"/>
<path d="M4037 3591 c-67 -27 -115 -66 -150 -123 -32 -52 -37 -54 -55 -36 -9
9 -12 4 -12 -25 0 -43 3 -44 65 -17 26 11 89 32 139 46 50 15 98 32 106 39 8
7 41 25 73 40 32 15 56 32 54 38 -6 19 -75 48 -126 53 -31 3 -61 -2 -94 -15z"/>
<path d="M5600 3590 c0 -11 7 -20 15 -20 8 0 15 9 15 20 0 11 -7 20 -15 20 -8
0 -15 -9 -15 -20z"/>
<path d="M6043 3574 c-7 -3 -13 -10 -13 -16 0 -7 5 -6 14 1 18 15 113 -36 152
-82 57 -67 85 -169 64 -232 -7 -20 -10 -38 -8 -41 10 -9 89 57 114 95 34 52
41 109 20 164 -15 37 -24 46 -89 76 -60 28 -86 34 -157 37 -47 2 -91 1 -97 -2z"/>
<path d="M3789 3531 c-22 -21 -39 -47 -39 -57 0 -13 7 -8 24 17 14 20 40 46
58 58 24 15 28 21 14 21 -10 0 -36 -17 -57 -39z"/>
<path d="M4307 3563 c-15 -14 -6 -52 13 -58 28 -9 40 2 40 36 0 24 -4 29 -23
29 -13 0 -27 -3 -30 -7z"/>
<path d="M4955 3520 c-8 -14 3 -30 21 -30 8 0 14 9 14 20 0 21 -24 28 -35 10z"/>
<path d="M4870 3499 c0 -5 5 -7 10 -4 6 3 10 8 10 11 0 2 -4 4 -10 4 -5 0 -10
-5 -10 -11z"/>
<path d="M5540 3470 c0 -5 7 -10 15 -10 8 0 15 5 15 10 0 6 -7 10 -15 10 -8 0
-15 -4 -15 -10z"/>
<path d="M4910 3426 c0 -9 7 -16 16 -16 17 0 14 22 -4 28 -7 2 -12 -3 -12 -12z"/>
<path d="M5005 3430 c-8 -14 3 -30 21 -30 8 0 14 9 14 20 0 21 -24 28 -35 10z"/>
<path d="M3965 3396 c-105 -34 -135 -52 -135 -81 0 -24 37 -133 60 -176 12
-21 13 -20 32 25 23 52 35 58 44 21 13 -51 25 -26 50 105 7 40 41 111 58 122
23 16 -42 6 -109 -16z"/>
<path d="M4343 3379 c-23 -11 -64 -44 -91 -73 -53 -55 -66 -92 -60 -157 l3
-34 18 33 c10 18 49 63 87 102 39 38 70 73 70 79 0 5 12 23 26 40 23 27 24 31
7 31 -10 0 -37 -9 -60 -21z"/>
<path d="M4270 3193 c-29 -31 -57 -68 -63 -81 -10 -21 -7 -28 21 -53 27 -24
41 -29 82 -29 l51 0 -22 29 c-20 27 -21 38 -16 110 3 45 4 81 2 81 -2 0 -26
-26 -55 -57z"/>
<path d="M5939 3091 c-13 -10 -49 -31 -79 -47 -45 -23 -51 -29 -32 -32 29 -5
48 -36 56 -93 6 -43 4 -50 -37 -105 -24 -33 -66 -79 -93 -102 -50 -43 -190
-120 -256 -142 -49 -15 -51 -40 -2 -40 92 0 181 22 282 71 119 57 170 100 216
179 62 105 64 120 25 232 -19 54 -39 98 -45 98 -6 0 -22 -8 -35 -19z"/>
<path d="M4580 3084 c0 -12 13 -39 29 -61 l29 -41 -33 8 -34 8 -27 -81 c-28
-83 -36 -94 -117 -160 l-47 -38 0 -75 c0 -70 -2 -77 -30 -104 l-30 -29 -15 22
c-8 12 -15 27 -15 34 0 25 -20 13 -45 -27 -29 -46 -30 -62 -10 -121 15 -40 14
-48 -4 -109 -11 -36 -23 -84 -27 -107 -4 -24 -9 -43 -12 -43 -8 0 -52 54 -58
73 -9 28 -22 10 -29 -41 -3 -26 -8 -62 -11 -81 -5 -30 0 -38 39 -75 33 -31 46
-51 50 -79 3 -20 2 -39 -2 -41 -3 -2 -87 -7 -187 -11 l-181 -7 7 52 c5 35 3
56 -6 68 -13 16 -13 16 -14 0 0 -27 -19 -22 -26 7 -7 28 -21 24 -34 -11 -15
-39 -30 -28 -30 22 0 38 5 51 32 77 17 18 36 31 41 29 5 -2 7 4 4 13 -4 8 -2
15 3 15 6 0 10 5 10 10 0 17 -38 11 -49 -7 -10 -17 -10 -17 -11 0 0 9 -4 17
-9 17 -5 0 -12 -8 -14 -17 -3 -10 -5 -2 -6 18 -2 53 17 99 40 99 11 0 19 7 19
18 0 14 -2 15 -10 2 -7 -12 -12 -12 -22 -2 -6 6 -17 12 -23 12 -10 0 -35 -87
-35 -122 0 -10 -7 -38 -16 -64 -9 -26 -12 -50 -7 -53 5 -3 6 -22 2 -41 -5 -27
-7 -29 -8 -10 -1 14 -6 32 -11 40 -8 12 -10 11 -10 -7 0 -27 -15 -30 -29 -5
-6 9 -11 13 -11 7 0 -5 -5 -3 -11 5 -7 11 -8 -4 -5 -50 9 -108 10 -111 25
-105 11 4 11 3 2 -9 -7 -8 -10 -19 -7 -25 3 -5 -21 -12 -57 -16 -125 -13 -152
-17 -170 -27 -10 -5 -43 -10 -75 -11 l-56 -2 -7 39 c-7 45 -24 58 -64 50 -66
-14 -101 -62 -112 -153 -4 -40 -2 -52 14 -68 20 -20 106 -38 126 -26 5 3 7 1
3 -5 -3 -6 4 -14 16 -17 13 -4 31 -14 41 -23 9 -8 17 -11 17 -6 0 5 4 4 8 -2
12 -16 112 -65 129 -62 12 2 10 10 -10 39 -14 21 -28 48 -32 60 -10 33 -22 38
-59 28 -31 -9 -93 -13 -85 -5 2 3 49 14 104 25 68 13 101 16 104 9 5 -14 56
-68 65 -68 3 0 4 20 2 44 -4 38 -2 46 14 51 26 8 59 -11 66 -39 3 -13 -4 -68
-17 -122 -12 -55 -24 -114 -27 -131 -4 -32 -24 -44 -37 -23 -3 6 -15 10 -26
10 -11 0 -41 11 -67 23 -32 16 -55 22 -72 17 -23 -6 -21 -8 18 -19 24 -7 73
-26 109 -43 55 -27 64 -34 59 -52 -3 -12 -9 -38 -12 -58 -4 -21 -10 -38 -15
-38 -5 0 -6 -12 -3 -27 3 -16 -15 -131 -40 -258 -58 -300 -78 -421 -79 -501
-2 -55 1 -68 18 -80 33 -25 68 -14 88 28 10 21 52 207 93 415 40 208 79 388
86 401 11 22 13 22 19 5 4 -10 8 -13 8 -6 1 6 10 9 24 6 16 -3 18 -2 8 5 -9 6
-10 12 -2 16 7 5 2 20 -15 45 l-25 38 17 93 c11 59 24 100 36 112 18 18 27 95
9 84 -11 -7 2 63 18 92 17 31 43 40 148 47 48 4 100 8 115 10 15 1 29 -3 31
-9 2 -7 9 -5 20 5 11 11 44 18 109 23 51 4 102 10 113 13 11 3 17 2 14 -1 -4
-4 -3 -23 1 -42 l8 -35 -36 8 c-60 11 -134 7 -176 -11 -29 -12 -42 -13 -52 -5
-11 9 -14 8 -14 -5 0 -9 -4 -16 -10 -16 -5 0 -7 -7 -4 -15 4 -10 2 -13 -8 -10
-11 5 -14 -1 -10 -24 3 -19 -2 -36 -12 -46 -9 -9 -16 -12 -16 -6 0 5 5 13 10
16 15 9 12 52 -4 58 -10 4 -13 1 -9 -9 3 -7 0 -14 -6 -14 -14 0 -14 25 0 53
10 21 10 21 -5 3 -9 -11 -16 -26 -16 -33 0 -7 -6 -23 -12 -34 -10 -17 -10 -23
0 -26 6 -3 12 -12 12 -21 0 -8 -3 -12 -6 -9 -8 8 -63 -63 -64 -81 0 -7 -11
-28 -24 -45 -30 -41 -36 -60 -40 -138 -2 -35 -7 -72 -11 -81 -17 -41 84 -8
199 66 l56 36 21 -51 c12 -27 37 -62 55 -77 l32 -27 -25 -150 c-22 -130 -24
-159 -15 -215 8 -50 17 -70 37 -88 34 -29 56 -23 115 33 69 65 73 64 99 -18
13 -40 30 -80 39 -89 21 -25 59 -22 87 6 21 21 23 29 15 58 -16 54 -11 117 16
223 66 260 72 305 39 330 -50 37 -57 29 -198 -225 -56 -101 -110 -188 -120
-194 -40 -24 -44 41 -16 226 l11 77 71 3 70 3 12 40 c17 60 35 83 90 118 77
49 98 73 92 106 -6 27 -3 29 31 35 20 3 53 15 72 27 41 25 40 26 -75 53 -38 9
-81 25 -94 34 -20 15 -66 110 -57 119 2 2 26 -3 54 -12 98 -32 290 7 360 74
26 26 29 46 5 36 -39 -16 -111 -26 -153 -20 -67 9 -146 33 -159 48 -11 14 -43
244 -41 300 0 15 -4 27 -9 27 -5 0 -11 6 -14 13 -2 6 -3 4 -2 -5 2 -10 -3 -36
-11 -59 -16 -44 -21 -190 -8 -211 17 -28 -42 21 -65 53 -22 33 -23 39 -18 174
8 187 31 290 52 228 10 -33 73 -91 104 -98 38 -8 39 4 5 36 -25 23 -54 80 -54
103 1 6 8 -2 16 -17 22 -41 24 -37 33 76 2 28 16 20 46 -25 38 -58 103 -117
165 -150 27 -16 50 -25 50 -22 0 4 -13 30 -30 58 -72 127 -126 316 -118 421
l3 50 40 -2 c31 -2 35 -1 20 6 -11 5 -15 10 -8 10 7 1 29 13 50 27 l38 26 150
-7 c83 -3 158 -9 169 -12 14 -4 16 -2 10 8 -6 11 -5 12 8 2 8 -7 18 -9 22 -5
10 9 10 9 109 12 l82 3 -104 8 c-163 12 -233 34 -298 92 -34 30 -28 2 7 -35
17 -17 30 -32 30 -33 0 -4 -108 14 -155 25 -109 28 -201 90 -239 165 -13 25
-16 27 -16 9z m-70 -444 c0 -16 -12 -46 -26 -67 l-26 -38 7 35 c17 88 45 131
45 70z m20 -94 c0 -19 -5 -36 -11 -38 -6 -2 -13 -25 -16 -52 -6 -47 -6 -48
-19 -25 -21 37 -17 90 9 121 29 36 37 35 37 -6z m-920 -551 c5 3 12 -4 15 -16
4 -12 12 -18 21 -15 9 3 14 -1 14 -12 0 -20 -38 -25 -56 -7 -17 16 -26 53 -17
67 5 10 8 8 11 -5 2 -9 7 -15 12 -12z m147 -37 c-3 -8 -6 -5 -6 6 -1 11 2 17
5 13 3 -3 4 -12 1 -19z m-29 -38 c-1 -16 -6 -30 -10 -30 -4 0 -8 14 -8 30 0
17 5 30 10 30 6 0 9 -13 8 -30z m37 0 c3 -5 1 -10 -4 -10 -6 0 -11 5 -11 10 0
6 2 10 4 10 3 0 8 -4 11 -10z m540 -10 c4 -6 -12 -10 -42 -9 -36 0 -43 3 -28
9 28 12 63 12 70 0z m-13 -316 c34 -6 39 -11 54 -58 9 -28 26 -71 37 -95 26
-55 26 -94 1 -128 -22 -29 -79 -41 -69 -15 3 10 0 12 -10 8 -9 -3 -15 0 -15 8
0 17 -27 29 -35 16 -4 -6 -11 -10 -17 -10 -22 0 37 53 80 72 23 10 40 23 37
29 -17 26 -190 1 -254 -37 -38 -22 -45 -16 -61 59 -14 65 -13 124 3 134 30 18
178 28 249 17z m-2 -314 c0 -5 -4 -10 -10 -10 -5 0 -10 5 -10 10 0 6 5 10 10
10 6 0 10 -4 10 -10z"/>
<path d="M5701 3014 c-62 -63 -68 -76 -23 -50 25 13 92 92 92 107 0 12 3 15
-69 -57z"/>
<path d="M6072 2728 c-19 -84 -77 -191 -142 -262 -63 -70 -71 -86 -42 -86 72
0 242 197 242 280 0 31 -29 120 -39 120 -3 0 -12 -24 -19 -52z"/>
<path d="M6988 2525 c-3 -3 -2 -22 2 -41 5 -20 4 -63 0 -96 -7 -48 -6 -66 6
-82 17 -25 17 -26 15 98 -2 93 -9 134 -23 121z"/>
<path d="M3783 2275 c0 -22 2 -30 4 -17 2 12 2 30 0 40 -3 9 -5 -1 -4 -23z"/>
<path d="M6172 2201 c-72 -90 -223 -160 -344 -161 -71 0 -74 2 -69 50 1 8 -6
3 -16 -12 -17 -27 -42 -36 -56 -21 -4 3 -1 13 6 22 11 14 10 14 -5 2 -10 -7
-18 -10 -18 -6 0 19 -33 -23 -55 -69 -30 -63 -75 -176 -75 -188 0 -19 -83
-178 -110 -210 l-28 -33 -20 43 -19 43 -12 -28 c-6 -15 -15 -50 -20 -76 -7
-39 -6 -51 7 -64 14 -14 17 -14 33 6 9 11 20 21 24 21 8 0 -4 -41 -18 -58 -6
-8 -11 -22 -12 -33 -1 -11 -11 -26 -22 -34 -11 -8 -23 -25 -26 -37 -5 -17 -14
-24 -39 -25 -20 -2 -38 -10 -46 -22 -13 -19 -15 -19 -50 18 -63 64 -93 104
-119 159 -33 71 -41 58 -13 -20 17 -45 35 -73 65 -100 43 -38 84 -114 87 -165
1 -15 6 -30 10 -34 4 -3 -6 -97 -22 -210 -57 -388 -90 -634 -90 -682 0 -27 7
-64 16 -83 15 -32 17 -33 39 -18 13 8 30 33 39 55 17 43 55 224 83 404 20 120
13 111 111 151 52 21 92 70 133 160 60 132 85 286 56 344 -16 31 -60 53 -89
44 -11 -3 -40 -24 -64 -46 -27 -24 -45 -35 -49 -28 -10 17 37 82 99 135 71 62
80 89 112 340 14 110 28 211 33 225 l8 25 25 -28 c35 -38 88 -57 156 -57 137
0 249 39 332 117 65 60 73 81 68 172 l-3 53 -33 -41z m-648 -966 c11 -29 -65
-285 -84 -285 -13 0 -59 59 -65 83 -7 27 75 201 101 215 21 12 40 6 48 -13z"/>
<path d="M6986 2214 c-9 -25 -7 -69 3 -58 14 14 24 74 13 74 -5 0 -13 -7 -16
-16z"/>
<path d="M3812 2120 c0 -14 2 -19 5 -12 2 6 2 18 0 25 -3 6 -5 1 -5 -13z"/>
<path d="M6901 2132 c-1 -19 30 -63 40 -56 5 3 9 -2 9 -11 0 -8 7 -18 15 -21
11 -5 15 -23 16 -73 0 -54 2 -61 10 -41 6 13 14 58 19 98 8 59 7 78 -4 94 -14
19 -15 18 -18 -17 -3 -43 -23 -57 -33 -26 -3 12 -13 21 -21 21 -8 0 -19 10
-24 23 -5 12 -9 16 -9 9z"/>
<path d="M3758 2107 c-3 -19 -2 -25 4 -19 6 6 8 18 6 28 -3 14 -5 12 -10 -9z"/>
<path d="M3791 2094 c0 -11 3 -14 6 -6 3 7 2 16 -1 19 -3 4 -6 -2 -5 -13z"/>
<path d="M7087 2040 c-3 -11 -1 -20 4 -20 5 0 9 9 9 20 0 11 -2 20 -4 20 -2 0
-6 -9 -9 -20z"/>
<path d="M2940 2020 c-23 -7 -23 -8 -4 -9 22 -1 39 -25 28 -42 -3 -5 2 -9 10
-9 9 0 16 -4 16 -10 0 -13 4 -13 -63 10 -31 11 -72 20 -92 20 -19 0 -35 3 -35
8 0 4 -26 8 -58 10 -51 3 -56 2 -42 -12 9 -9 57 -26 107 -39 73 -17 95 -27
105 -45 10 -19 17 -22 38 -17 14 4 42 9 62 12 23 3 35 9 31 16 -3 5 -1 7 4 4
13 -8 75 12 85 26 4 7 12 6 22 -3 9 -7 19 -10 22 -8 4 5 -30 27 -88 59 -10 5
-29 9 -42 9 -14 0 -28 5 -32 11 -3 6 -17 8 -31 4 -16 -4 -22 -2 -18 5 3 5 5
10 3 9 -2 -1 -14 -5 -28 -9z m105 -51 c11 -17 -1 -21 -15 -4 -8 9 -8 15 -2 15
6 0 14 -5 17 -11z m80 -9 c3 -5 -2 -10 -12 -10 -11 0 -24 -5 -31 -12 -17 -17
-27 -2 -11 16 16 17 45 21 54 6z"/>
<path d="M7052 1988 c-7 -7 -12 -16 -12 -21 0 -5 7 -1 16 8 9 9 14 18 12 20
-2 3 -10 -1 -16 -7z"/>
<path d="M7480 1940 c-31 -24 -50 -25 -50 -2 -1 15 -2 15 -15 -2 -8 -11 -15
-27 -15 -35 0 -15 -95 -86 -114 -86 -5 0 -22 -11 -36 -25 -15 -14 -48 -40 -74
-59 -52 -38 -54 -46 -7 -30 18 6 44 9 59 6 33 -7 66 8 41 18 -9 3 -20 5 -25 4
-24 -4 -26 3 -6 17 28 19 75 26 83 12 4 -6 19 -8 35 -4 l29 8 -32 13 c-18 8
-33 18 -33 22 0 5 23 23 51 42 46 30 54 32 75 20 19 -10 27 -10 36 -1 9 9 7
12 -10 12 -32 0 -27 14 18 45 22 15 40 32 40 36 0 15 -24 10 -50 -11z"/>
<path d="M6136 1849 c-16 -9 -57 -23 -92 -30 -35 -7 -64 -16 -64 -20 0 -15 73
-31 116 -26 24 2 44 3 44 0 0 -6 -35 -108 -74 -217 -39 -107 -42 -129 -22
-164 15 -28 99 -81 90 -57 -3 8 -1 15 5 15 6 0 11 -5 11 -12 0 -6 3 -8 6 -5 4
4 1 13 -6 22 -11 13 -10 14 4 9 10 -4 16 -1 16 7 0 8 3 25 6 39 4 22 3 21 -10
-5 -8 -16 -15 -23 -15 -15 -1 31 12 60 28 61 13 0 12 2 -3 8 -27 10 -13 15
117 37 59 10 107 22 107 27 0 18 -97 51 -160 53 -62 3 -65 4 -71 31 -4 15 -7
42 -8 59 -1 29 2 32 43 43 25 6 70 11 100 11 31 0 56 3 56 8 0 4 -16 25 -36
46 l-35 40 -52 -11 c-29 -6 -60 -14 -69 -18 -16 -6 -16 -4 -7 24 17 49 9 61
-25 40z"/>
<path d="M6573 1838 c-27 -35 -46 -147 -22 -132 6 3 20 25 30 48 28 63 23 123
-8 84z"/>
<path d="M7508 1843 c6 -2 18 -2 25 0 6 3 1 5 -13 5 -14 0 -19 -2 -12 -5z"/>
<path d="M2835 1820 c3 -5 11 -10 16 -10 6 0 7 5 4 10 -3 6 -11 10 -16 10 -6
0 -7 -4 -4 -10z"/>
<path d="M6371 1773 c53 -60 74 -65 39 -9 -14 23 -29 36 -43 36 -20 0 -20 -1
4 -27z"/>
<path d="M6696 1785 c-12 -33 -7 -85 9 -85 11 0 15 11 15 38 0 45 -14 72 -24
47z"/>
<path d="M5242 1717 c-14 -34 -16 -59 -3 -38 7 11 9 11 13 0 8 -24 15 6 8 36
l-7 30 -11 -28z"/>
<path d="M6633 1600 c-15 -22 -36 -42 -45 -46 -10 -3 -18 -12 -18 -20 0 -8 -8
-14 -18 -14 -53 0 -83 -78 -97 -249 -4 -46 -10 -94 -15 -106 -10 -26 -57 -45
-110 -45 -52 0 -65 19 -52 72 16 63 26 172 18 202 -5 21 -12 26 -36 26 -26 0
-33 -7 -52 -45 -12 -24 -25 -42 -30 -39 -4 3 -8 -4 -8 -16 0 -12 -4 -19 -9
-16 -5 4 -7 -3 -4 -14 3 -11 9 -23 14 -26 5 -3 9 -27 9 -53 0 -48 -20 -81 -49
-81 -9 0 -11 -8 -7 -25 17 -68 17 -118 -3 -234 -24 -139 -27 -273 -8 -311 9
-18 21 -25 42 -25 l30 0 6 145 c6 137 25 261 48 323 13 34 50 49 115 45 49 -3
51 -4 54 -35 2 -18 -6 -90 -18 -160 -32 -191 -35 -261 -13 -303 22 -44 61 -52
93 -20 17 17 21 29 15 53 -4 18 -8 57 -10 87 -2 30 -1 42 2 25 6 -38 28 -62
63 -70 54 -12 116 39 178 146 51 88 177 254 193 254 31 0 24 -37 -63 -298 -27
-81 -28 -93 -18 -141 15 -75 30 -94 64 -78 29 13 77 83 103 150 13 35 14 48 5
63 -10 15 -5 41 24 136 141 460 141 463 126 504 -13 32 -66 49 -156 49 -64 0
-68 -1 -112 -42 -69 -64 -104 -157 -104 -278 0 -57 -4 -67 -62 -160 -94 -150
-155 -230 -177 -230 -11 0 -28 14 -39 35 l-21 34 24 143 25 143 46 42 c37 34
45 48 42 68 -6 28 13 38 65 34 34 -3 107 33 107 53 0 5 -7 2 -16 -6 -23 -23
-32 -20 -26 10 3 16 7 21 12 14 5 -8 10 -9 14 -2 4 6 14 8 24 5 15 -6 15 -5 2
8 -8 8 -23 18 -33 22 -18 7 -18 8 0 39 10 18 21 35 24 38 4 3 10 16 14 30 11
34 63 107 104 144 72 65 83 77 77 83 -4 4 -11 2 -17 -4 -6 -6 -18 -9 -27 -6
-10 4 -13 2 -8 -5 7 -12 -55 -82 -73 -82 -5 0 -18 -17 -28 -37 -9 -21 -20 -40
-23 -43 -4 -3 -12 -15 -19 -27 -6 -13 -15 -23 -19 -23 -16 0 -32 68 -32 132 0
62 -2 66 -25 72 -14 4 -25 11 -25 16 0 23 -31 7 -57 -30z m117 -214 c-1 -51
-23 -100 -33 -74 -3 7 -6 -4 -6 -24 -1 -39 -16 -57 -33 -40 -7 7 -5 20 5 41 9
18 22 66 28 107 12 66 15 73 26 58 7 -10 13 -41 13 -68z m250 -75 c0 -48 -114
-202 -138 -187 -23 14 -17 46 18 105 50 82 75 111 100 111 15 0 20 -7 20 -29z
m-412 -127 c-10 -10 -28 6 -28 24 0 15 1 15 17 -1 9 -9 14 -19 11 -23z"/>
<path d="M7540 1627 c-14 -6 -27 -14 -30 -18 -3 -3 -19 -11 -37 -17 -27 -9
-31 -8 -26 4 4 10 0 12 -11 8 -9 -3 -13 -10 -10 -15 7 -12 -73 -49 -108 -49
-32 0 -35 10 -11 47 14 21 14 25 3 21 -8 -2 -19 -22 -25 -44 -12 -50 -20 -57
-77 -74 -25 -8 -61 -27 -79 -42 -17 -15 -30 -28 -27 -28 9 0 223 82 233 89 6
4 30 13 55 20 25 7 65 25 90 40 25 14 57 32 73 39 15 6 27 16 27 22 0 12 -8
12 -40 -3z"/>
<path d="M6830 1586 c0 -9 5 -16 10 -16 6 0 10 4 10 9 0 6 -4 13 -10 16 -5 3
-10 -1 -10 -9z"/>
<path d="M5021 1564 c0 -11 3 -14 6 -6 3 7 2 16 -1 19 -3 4 -6 -2 -5 -13z"/>
<path d="M6815 1320 c-10 -11 -16 -22 -13 -25 3 -3 13 6 22 20 20 30 16 32 -9
5z"/>
<path d="M5855 1304 c-50 -26 -85 -66 -121 -139 -48 -97 -77 -243 -72 -360 5
-102 22 -146 68 -170 89 -46 240 22 240 108 0 29 0 30 -42 22 -90 -15 -111
-12 -126 18 -24 49 -8 92 62 166 75 80 146 195 153 250 12 90 -78 149 -162
105z m85 -104 c8 -15 6 -29 -10 -60 -35 -68 -80 -103 -80 -61 0 28 28 103 47
123 21 23 30 23 43 -2z"/>
<path d="M4825 1271 c-22 -10 -70 -46 -107 -81 -65 -59 -68 -64 -68 -107 0
-77 28 -104 65 -63 10 12 25 18 32 15 8 -2 12 -1 9 4 -8 13 73 81 98 81 2 0
-24 -58 -59 -129 -93 -188 -104 -254 -53 -308 18 -19 32 -23 82 -23 79 0 245
44 269 72 20 24 23 96 4 122 -13 17 -16 17 -83 -2 -72 -22 -203 -47 -208 -41
-2 2 17 40 42 84 65 117 92 196 92 280 0 111 -29 136 -115 96z"/>
<path d="M6326 1232 c-7 -11 22 -21 42 -15 6 3 12 9 12 15 0 7 -4 7 -13 -1
-10 -7 -17 -7 -24 0 -7 7 -13 7 -17 1z"/>
<path d="M5618 300 c-25 -62 -32 -90 -23 -90 7 0 16 11 19 25 5 21 11 24 43
21 24 -2 42 -12 54 -27 10 -13 20 -22 22 -19 6 6 -55 156 -69 170 -7 7 -21
-16 -46 -80z m72 -21 c0 -5 -13 -9 -30 -9 -35 0 -35 -1 -14 48 l15 37 15 -34
c8 -18 14 -37 14 -42z"/>
<path d="M5817 382 c-2 -4 -3 -43 -3 -87 l1 -80 42 -3 c57 -4 83 11 83 48 0
16 -7 33 -16 38 -11 6 -13 11 -5 16 15 10 14 56 -1 60 -27 9 -98 14 -101 8z
m88 -42 c0 -21 -5 -26 -32 -28 -24 -2 -33 1 -38 17 -9 30 3 43 38 39 27 -2 32
-7 32 -28z m-1 -53 c10 -7 17 -22 15 -33 -3 -15 -14 -20 -47 -22 -40 -3 -42
-2 -40 25 1 15 3 31 5 36 7 12 48 8 67 -6z"/>
<path d="M6354 378 c-3 -4 9 -8 25 -8 l31 0 0 -80 c0 -47 4 -80 10 -80 6 0 10
33 10 80 l0 80 27 0 c14 0 24 2 21 5 -9 9 -119 12 -124 3z"/>
<path d="M6571 378 c-16 -6 -19 -16 -17 -85 l1 -78 58 -3 c35 -2 57 1 57 8 0
5 -21 10 -49 10 -48 0 -49 1 -47 30 1 28 4 30 38 30 21 0 38 5 38 10 0 6 -17
10 -38 10 -40 0 -39 -1 -33 52 1 4 22 8 49 10 l47 3 -42 5 c-24 3 -51 2 -62
-2z"/>
<path d="M6774 382 l-32 -3 2 -81 c1 -59 5 -83 15 -86 9 -3 11 1 7 14 -8 27 4
40 46 48 42 8 63 35 54 71 -7 26 -45 42 -92 37z m57 -22 c39 -21 16 -70 -33
-70 -21 0 -29 6 -34 25 -12 50 19 70 67 45z"/>
<path d="M7180 382 c-13 -5 -13 -172 0 -172 6 0 10 33 10 80 l0 80 45 0 45 0
0 -80 c0 -47 4 -80 10 -80 6 0 10 35 10 84 l0 84 -55 4 c-30 1 -60 2 -65 0z"/>
<path d="M7380 380 c0 -5 5 -10 10 -10 14 0 13 -133 -2 -148 -9 -9 -4 -12 22
-12 26 0 31 3 22 12 -15 15 -16 148 -2 148 6 0 10 5 10 10 0 6 -13 10 -30 10
-16 0 -30 -4 -30 -10z"/>
<path d="M7548 378 c-26 -9 -41 -39 -31 -64 3 -8 9 -14 15 -14 5 0 2 -10 -6
-22 -17 -24 -22 -68 -7 -68 5 0 12 16 15 35 7 33 9 35 46 35 39 0 40 -1 40
-35 0 -19 5 -35 10 -35 16 0 13 170 -2 171 -7 0 -22 2 -33 3 -12 1 -33 -2 -47
-6z m72 -44 c0 -35 -1 -35 -37 -32 -31 2 -39 7 -41 27 -4 28 12 41 51 41 24 0
27 -3 27 -36z"/>
<path d="M6071 358 c-5 -13 -18 -47 -30 -76 -24 -59 -26 -72 -11 -72 6 0 10 7
10 15 0 38 87 46 96 8 4 -13 12 -23 20 -23 10 0 11 6 4 23 -5 12 -19 49 -32
81 -26 66 -43 79 -57 44z m48 -80 c1 -5 -12 -8 -29 -8 -35 0 -35 -1 -14 48
l16 37 13 -35 c8 -19 14 -38 14 -42z"/>
<path d="M6972 298 c-18 -44 -30 -84 -27 -87 6 -5 21 13 28 34 4 11 80 10 84
-2 7 -19 22 -37 28 -32 9 10 -57 169 -70 169 -6 0 -26 -37 -43 -82z m75 -25
c-3 -2 -19 -3 -35 -1 l-30 3 16 39 15 39 19 -38 c11 -20 17 -39 15 -42z"/>
</g>
</svg>
