<svg width="20" height="20" viewBox="0 0 20 20" fill="none" xmlns="http://www.w3.org/2000/svg">
<path d="M4.25 13.375C3.94445 12.8472 3.71528 12.3056 3.5625 11.75C3.40972 11.1944 3.33334 10.625 3.33334 10.0417C3.33334 8.18056 3.97917 6.59723 5.27084 5.29167C6.5625 3.98611 8.13889 3.33334 10 3.33334H10.1458L8.8125 2L9.97917 0.833336L13.3125 4.16667L9.97917 7.5L8.8125 6.33334L10.1458 5H10C8.61111 5 7.43056 5.48959 6.45834 6.46875C5.48611 7.44792 5 8.63889 5 10.0417C5 10.4028 5.04167 10.7569 5.125 11.1042C5.20834 11.4514 5.33334 11.7917 5.5 12.125L4.25 13.375ZM10.0208 19.1667L6.6875 15.8333L10.0208 12.5L11.1875 13.6667L9.85417 15H10C11.3889 15 12.5694 14.5104 13.5417 13.5313C14.5139 12.5521 15 11.3611 15 9.95834C15 9.59723 14.9583 9.24306 14.875 8.89584C14.7917 8.54861 14.6667 8.20834 14.5 7.875L15.75 6.625C16.0556 7.15278 16.2847 7.69445 16.4375 8.25C16.5903 8.80556 16.6667 9.375 16.6667 9.95834C16.6667 11.8194 16.0208 13.4028 14.7292 14.7083C13.4375 16.0139 11.8611 16.6667 10 16.6667H9.85417L11.1875 18L10.0208 19.1667Z" fill="currentColor"/>
</svg>
