<svg width="20" height="20" viewBox="0 0 20 20" fill="none" xmlns="http://www.w3.org/2000/svg">
<path d="M9.5 13.3333L11.6667 11.1667L13.8333 13.3333L15 12.1667L12.8333 9.99999L15 7.83333L13.8333 6.66666L11.6667 8.83333L9.5 6.66666L8.33333 7.83333L10.5 9.99999L8.33333 12.1667L9.5 13.3333ZM7.5 16.6667C7.23611 16.6667 6.98611 16.6076 6.75 16.4896C6.51389 16.3715 6.31945 16.2083 6.16667 16L1.66667 9.99999L6.16667 3.99999C6.31945 3.79166 6.51389 3.62847 6.75 3.51041C6.98611 3.39236 7.23611 3.33333 7.5 3.33333H16.6667C17.125 3.33333 17.5174 3.49652 17.8438 3.82291C18.1701 4.1493 18.3333 4.54166 18.3333 4.99999V15C18.3333 15.4583 18.1701 15.8507 17.8438 16.1771C17.5174 16.5035 17.125 16.6667 16.6667 16.6667H7.5ZM3.75 9.99999L7.5 15H16.6667V4.99999H7.5L3.75 9.99999Z" fill="currentColor"/>
</svg>
