<svg width="20" height="20" viewBox="0 0 20 20" fill="none" xmlns="http://www.w3.org/2000/svg">
<path d="M10.8333 12L12 10.8333L10 8.83334V5.00001H8.33333V9.50001L10.8333 12ZM7.66666 14.8125C7.88889 14.1458 8.28125 13.5938 8.84375 13.1563C9.40625 12.7188 10.0556 12.5 10.7917 12.5H13.9583C14.2917 12.0278 14.5486 11.5104 14.7292 10.9479C14.9097 10.3854 15 9.79167 15 9.16667C15 7.54167 14.434 6.1632 13.3021 5.03126C12.1701 3.89931 10.7917 3.33334 9.16666 3.33334C7.54166 3.33334 6.16319 3.89931 5.03125 5.03126C3.8993 6.1632 3.33333 7.54167 3.33333 9.16667C3.33333 10.5278 3.73958 11.7257 4.55208 12.7604C5.36458 13.7951 6.40278 14.4792 7.66666 14.8125ZM10.8333 19.1667C10.0278 19.1667 9.31944 18.9132 8.70833 18.4063C8.09722 17.8993 7.71528 17.2639 7.5625 16.5C5.86805 16.1389 4.4618 15.2778 3.34375 13.9167C2.22569 12.5556 1.66666 10.9722 1.66666 9.16667C1.66666 7.08334 2.39583 5.31251 3.85416 3.85417C5.3125 2.39584 7.08333 1.66667 9.16666 1.66667C11.25 1.66667 13.0208 2.39584 14.4792 3.85417C15.9375 5.31251 16.6667 7.08334 16.6667 9.16667C16.6667 9.76389 16.6007 10.3438 16.4687 10.9063C16.3368 11.4688 16.1458 12 15.8958 12.5C16.8125 12.5 17.5868 12.8264 18.2187 13.4792C18.8507 14.1319 19.1667 14.9167 19.1667 15.8333C19.1667 16.75 18.8403 17.5347 18.1875 18.1875C17.5347 18.8403 16.75 19.1667 15.8333 19.1667H10.8333ZM10.8333 17.5H15.8333C16.2917 17.5 16.684 17.3368 17.0104 17.0104C17.3368 16.684 17.5 16.2917 17.5 15.8333C17.5 15.375 17.3368 14.9826 17.0104 14.6563C16.684 14.3299 16.2917 14.1667 15.8333 14.1667H10.8333C10.375 14.1667 9.98264 14.3299 9.65625 14.6563C9.32986 14.9826 9.16666 15.375 9.16666 15.8333C9.16666 16.2917 9.32986 16.684 9.65625 17.0104C9.98264 17.3368 10.375 17.5 10.8333 17.5ZM10.8333 16.6667C10.5972 16.6667 10.3993 16.5868 10.2396 16.4271C10.0799 16.2674 10 16.0694 10 15.8333C10 15.5972 10.0799 15.3993 10.2396 15.2396C10.3993 15.0799 10.5972 15 10.8333 15C11.0694 15 11.2674 15.0799 11.4271 15.2396C11.5868 15.3993 11.6667 15.5972 11.6667 15.8333C11.6667 16.0694 11.5868 16.2674 11.4271 16.4271C11.2674 16.5868 11.0694 16.6667 10.8333 16.6667ZM13.3333 16.6667C13.0972 16.6667 12.8993 16.5868 12.7396 16.4271C12.5799 16.2674 12.5 16.0694 12.5 15.8333C12.5 15.5972 12.5799 15.3993 12.7396 15.2396C12.8993 15.0799 13.0972 15 13.3333 15C13.5694 15 13.7674 15.0799 13.9271 15.2396C14.0868 15.3993 14.1667 15.5972 14.1667 15.8333C14.1667 16.0694 14.0868 16.2674 13.9271 16.4271C13.7674 16.5868 13.5694 16.6667 13.3333 16.6667ZM15.8333 16.6667C15.5972 16.6667 15.3993 16.5868 15.2396 16.4271C15.0799 16.2674 15 16.0694 15 15.8333C15 15.5972 15.0799 15.3993 15.2396 15.2396C15.3993 15.0799 15.5972 15 15.8333 15C16.0694 15 16.2674 15.0799 16.4271 15.2396C16.5868 15.3993 16.6667 15.5972 16.6667 15.8333C16.6667 16.0694 16.5868 16.2674 16.4271 16.4271C16.2674 16.5868 16.0694 16.6667 15.8333 16.6667Z" fill="currentColor"/>
</svg>
