<svg width="20" height="20" viewBox="0 0 20 20" fill="none" xmlns="http://www.w3.org/2000/svg">
<path d="M15.75 17.5L11.1875 12.9375L12.9375 11.1875L17.5 15.75L15.75 17.5ZM4.25 17.5L2.49999 15.75L8.25 10L6.83333 8.58334L6.25 9.16667L5.1875 8.10417V9.81251L4.60416 10.3958L2.08333 7.875L2.66666 7.29167H4.37499L3.33333 6.25001L6.29166 3.29167C6.56944 3.01389 6.86805 2.81251 7.1875 2.68751C7.50694 2.56251 7.83333 2.50001 8.16666 2.50001C8.5 2.50001 8.82638 2.56251 9.14583 2.68751C9.46527 2.81251 9.76388 3.01389 10.0417 3.29167L8.125 5.20834L9.16666 6.25001L8.58333 6.83334L10 8.25001L11.875 6.37501C11.8194 6.22223 11.7743 6.06251 11.7396 5.89584C11.7049 5.72917 11.6875 5.56251 11.6875 5.39584C11.6875 4.57639 11.9687 3.88542 12.5312 3.32292C13.0937 2.76042 13.7847 2.47917 14.6042 2.47917C14.8125 2.47917 15.0104 2.50001 15.1979 2.54167C15.3854 2.58334 15.5764 2.64584 15.7708 2.72917L13.7083 4.79167L15.2083 6.29167L17.2708 4.22917C17.3681 4.42362 17.434 4.61459 17.4687 4.80209C17.5035 4.98959 17.5208 5.18751 17.5208 5.39584C17.5208 6.21528 17.2396 6.90626 16.6771 7.46876C16.1146 8.03126 15.4236 8.3125 14.6042 8.3125C14.4375 8.3125 14.2708 8.29862 14.1042 8.27084C13.9375 8.24306 13.7778 8.19445 13.625 8.12501L4.25 17.5Z" fill="currentColor"/>
</svg>
