<svg width="20" height="20" viewBox="0 0 20 20" fill="none" xmlns="http://www.w3.org/2000/svg">
<path d="M9.16667 16.6667C8.93056 16.6667 8.73264 16.5868 8.57292 16.4271C8.4132 16.2674 8.33333 16.0694 8.33333 15.8333V10.8333L3.5 4.66667C3.29167 4.38889 3.26042 4.09722 3.40625 3.79167C3.55208 3.48611 3.80556 3.33334 4.16667 3.33334H15.8333C16.1944 3.33334 16.4479 3.48611 16.5938 3.79167C16.7396 4.09722 16.7083 4.38889 16.5 4.66667L11.6667 10.8333V15.8333C11.6667 16.0694 11.5868 16.2674 11.4271 16.4271C11.2674 16.5868 11.0694 16.6667 10.8333 16.6667H9.16667ZM10 10.25L14.125 5H5.875L10 10.25Z" fill="currentColor"/>
</svg>
