<svg width="20" height="20" viewBox="0 0 20 20" fill="none" xmlns="http://www.w3.org/2000/svg">
<path d="M9.16667 14.1667H10.8333V13.3333H11.6667C11.9028 13.3333 12.1007 13.2535 12.2604 13.0937C12.4201 12.934 12.5 12.7361 12.5 12.5V9.99999C12.5 9.76388 12.4201 9.56597 12.2604 9.40624C12.1007 9.24652 11.9028 9.16666 11.6667 9.16666H9.16667V8.33333H12.5V6.66666H10.8333V5.83333H9.16667V6.66666H8.33333C8.09722 6.66666 7.89931 6.74652 7.73958 6.90624C7.57986 7.06597 7.5 7.26388 7.5 7.49999V9.99999C7.5 10.2361 7.57986 10.434 7.73958 10.5937C7.89931 10.7535 8.09722 10.8333 8.33333 10.8333H10.8333V11.6667H7.5V13.3333H9.16667V14.1667ZM3.33333 16.6667C2.875 16.6667 2.48264 16.5035 2.15625 16.1771C1.82986 15.8507 1.66667 15.4583 1.66667 15V4.99999C1.66667 4.54166 1.82986 4.1493 2.15625 3.82291C2.48264 3.49652 2.875 3.33333 3.33333 3.33333H16.6667C17.125 3.33333 17.5174 3.49652 17.8438 3.82291C18.1701 4.1493 18.3333 4.54166 18.3333 4.99999V15C18.3333 15.4583 18.1701 15.8507 17.8438 16.1771C17.5174 16.5035 17.125 16.6667 16.6667 16.6667H3.33333ZM3.33333 15H16.6667V4.99999H3.33333V15Z" fill="currentColor"/>
</svg>
