<svg width="20" height="20" viewBox="0 0 20 20" fill="none" xmlns="http://www.w3.org/2000/svg">
<path d="M10 16.6667C9.54167 16.6667 9.14931 16.5035 8.82292 16.1771C8.49653 15.8507 8.33334 15.4583 8.33334 15C8.33334 14.5417 8.49653 14.1493 8.82292 13.8229C9.14931 13.4965 9.54167 13.3333 10 13.3333C10.4583 13.3333 10.8507 13.4965 11.1771 13.8229C11.5035 14.1493 11.6667 14.5417 11.6667 15C11.6667 15.4583 11.5035 15.8507 11.1771 16.1771C10.8507 16.5035 10.4583 16.6667 10 16.6667ZM10 11.6667C9.54167 11.6667 9.14931 11.5035 8.82292 11.1771C8.49653 10.8507 8.33334 10.4583 8.33334 10C8.33334 9.54167 8.49653 9.14931 8.82292 8.82292C9.14931 8.49653 9.54167 8.33334 10 8.33334C10.4583 8.33334 10.8507 8.49653 11.1771 8.82292C11.5035 9.14931 11.6667 9.54167 11.6667 10C11.6667 10.4583 11.5035 10.8507 11.1771 11.1771C10.8507 11.5035 10.4583 11.6667 10 11.6667ZM10 6.66667C9.54167 6.66667 9.14931 6.50347 8.82292 6.17709C8.49653 5.8507 8.33334 5.45834 8.33334 5C8.33334 4.54167 8.49653 4.14931 8.82292 3.82292C9.14931 3.49653 9.54167 3.33334 10 3.33334C10.4583 3.33334 10.8507 3.49653 11.1771 3.82292C11.5035 4.14931 11.6667 4.54167 11.6667 5C11.6667 5.45834 11.5035 5.8507 11.1771 6.17709C10.8507 6.50347 10.4583 6.66667 10 6.66667Z" fill="currentColor"/>
</svg>
