<svg width="20" height="20" viewBox="0 0 20 20" fill="none" xmlns="http://www.w3.org/2000/svg">
<path d="M13.4167 11.0833L12.2083 9.875C12.3333 9.22222 12.1458 8.61111 11.6458 8.04167C11.1458 7.47222 10.5 7.25 9.70834 7.375L8.5 6.16667C8.73611 6.05555 8.9757 5.97222 9.21875 5.91667C9.46181 5.86111 9.72223 5.83333 10 5.83333C11.0417 5.83333 11.9271 6.19792 12.6563 6.92708C13.3854 7.65625 13.75 8.54167 13.75 9.58333C13.75 9.86111 13.7222 10.1215 13.6667 10.3646C13.6111 10.6076 13.5278 10.8472 13.4167 11.0833ZM16.0833 13.7083L14.875 12.5417C15.4028 12.1389 15.8715 11.6979 16.2813 11.2188C16.691 10.7396 17.0417 10.1944 17.3333 9.58333C16.6389 8.18055 15.6424 7.06597 14.3438 6.23958C13.0451 5.41319 11.5972 5 10 5C9.59723 5 9.20139 5.02778 8.8125 5.08333C8.42361 5.13889 8.04167 5.22222 7.66667 5.33333L6.375 4.04167C6.94445 3.80555 7.52778 3.62847 8.125 3.51042C8.72223 3.39236 9.34723 3.33333 10 3.33333C12.0972 3.33333 13.9653 3.91319 15.6042 5.07292C17.2431 6.23264 18.4306 7.73611 19.1667 9.58333C18.8472 10.4028 18.4271 11.1632 17.9063 11.8646C17.3854 12.566 16.7778 13.1806 16.0833 13.7083ZM16.5 18.8333L13 15.375C12.5139 15.5278 12.0243 15.6424 11.5313 15.7188C11.0382 15.7951 10.5278 15.8333 10 15.8333C7.90278 15.8333 6.03473 15.2535 4.39584 14.0937C2.75695 12.934 1.56945 11.4306 0.833336 9.58333C1.125 8.84722 1.49306 8.16319 1.9375 7.53125C2.38195 6.8993 2.88889 6.33333 3.45834 5.83333L1.16667 3.5L2.33334 2.33333L17.6667 17.6667L16.5 18.8333ZM4.625 7C4.22223 7.36111 3.85417 7.75694 3.52084 8.1875C3.1875 8.61805 2.90278 9.08333 2.66667 9.58333C3.36111 10.9861 4.35764 12.1007 5.65625 12.9271C6.95486 13.7535 8.40278 14.1667 10 14.1667C10.2778 14.1667 10.5486 14.1493 10.8125 14.1146C11.0764 14.0799 11.3472 14.0417 11.625 14L10.875 13.2083C10.7222 13.25 10.5764 13.2812 10.4375 13.3021C10.2986 13.3229 10.1528 13.3333 10 13.3333C8.95834 13.3333 8.07292 12.9687 7.34375 12.2396C6.61459 11.5104 6.25 10.625 6.25 9.58333C6.25 9.43055 6.26042 9.28472 6.28125 9.14583C6.30209 9.00694 6.33334 8.86111 6.375 8.70833L4.625 7Z" fill="currentColor"/>
</svg>
